<?xml version="1.0" encoding="utf-8"?>
<!-- Generator: Adobe Illustrator 16.0.0, SVG Export Plug-In . SVG Version: 6.00 Build 0)  -->
<!DOCTYPE svg PUBLIC "-//W3C//DTD SVG 1.1//EN" "http://www.w3.org/Graphics/SVG/1.1/DTD/svg11.dtd">
<svg version="1.1" id="Layer_1" xmlns="http://www.w3.org/2000/svg" xmlns:xlink="http://www.w3.org/1999/xlink" x="0px" y="0px"
	 width="60.234px" height="60.234px" viewBox="0 0 60.234 60.234" enable-background="new 0 0 60.234 60.234" xml:space="preserve">
<path fill="#585555" d="M48.821,3.416c4.409,0,7.997,3.587,7.997,7.997v37.408c0,4.409-3.588,7.997-7.997,7.997H11.413
	c-4.41,0-7.997-3.588-7.997-7.997V11.413c0-4.41,3.587-7.997,7.997-7.997H48.821 M48.821,0H11.413C5.11,0,0,5.11,0,11.413v37.408
	c0,6.304,5.11,11.413,11.413,11.413h37.408c6.304,0,11.413-5.109,11.413-11.413V11.413C60.234,5.11,55.125,0,48.821,0"/>
<path fill-rule="evenodd" clip-rule="evenodd" fill="#585555" d="M48.442,40.625H31.015v1.339c0.065,0.041,0.127,0.089,0.184,0.146
	l6.708,6.711c0.364,0.365,0.401,0.925,0.082,1.244c-0.318,0.318-0.879,0.281-1.242-0.084l-5.732-5.732v1.771
	c0,0.516-0.369,0.938-0.82,0.938c-0.451,0-0.821-0.422-0.821-0.938v-1.795l-5.755,5.756c-0.365,0.365-0.925,0.402-1.244,0.084
	c-0.319-0.319-0.282-0.879,0.083-1.244l6.708-6.711c0.064-0.063,0.135-0.116,0.208-0.16v-1.324H11.791
	c-1.719,0-3.125-1.407-3.125-3.127V16.392c0-1.72,1.406-3.127,3.125-3.127h17.583v-2.189c0-0.516,0.37-0.938,0.821-0.938
	c0.451,0,0.82,0.422,0.82,0.938v2.189h17.427c1.72,0,3.126,1.407,3.126,3.127v21.106C51.568,39.217,50.162,40.625,48.442,40.625
	 M49.849,16.392c0-0.776-0.631-1.407-1.407-1.407H11.791c-0.775,0-1.406,0.631-1.406,1.407v21.106c0,0.775,0.631,1.406,1.406,1.406
	h36.651c0.776,0,1.407-0.631,1.407-1.406V16.392z M44.196,23.817c-0.28,0-0.542-0.071-0.772-0.196l-8.795,6.557
	c0.004,0.05,0.008,0.101,0.008,0.153c0,0.893-0.723,1.615-1.615,1.615c-0.759,0-1.395-0.524-1.566-1.231l-7.429-2.869
	c-0.296,0.356-0.743,0.583-1.242,0.583c-0.214,0-0.417-0.042-0.604-0.118l-3.807,3.809c0.006,0.054,0.009,0.109,0.009,0.166
	c0,0.892-0.723,1.615-1.615,1.615s-1.615-0.724-1.615-1.615c0-0.893,0.723-1.616,1.615-1.616c0.276,0,0.536,0.07,0.764,0.192
	l3.681-3.683c-0.027-0.117-0.043-0.239-0.043-0.365c0-0.893,0.723-1.616,1.615-1.616c0.739,0,1.361,0.497,1.553,1.176l7.476,2.888
	c0.296-0.334,0.728-0.546,1.208-0.546c0.291,0,0.562,0.078,0.799,0.212l8.773-6.539c-0.008-0.062-0.012-0.124-0.012-0.188
	c0-0.892,0.723-1.615,1.614-1.615s1.615,0.723,1.615,1.615C45.811,23.094,45.087,23.817,44.196,23.817"/>
<path fill="#585555" d="M37.445,50.781c-0.385,0-0.768-0.163-1.053-0.446l-4.877-4.879v0.563c0,0.793-0.592,1.438-1.321,1.438
	c-0.728,0-1.32-0.645-1.32-1.438V45.43l-4.902,4.904c-0.538,0.538-1.456,0.578-1.951,0.083c-0.254-0.254-0.385-0.616-0.36-0.992
	c0.024-0.357,0.181-0.697,0.443-0.959l6.708-6.711c0.02-0.02,0.041-0.039,0.062-0.059v-0.572H11.792c-2,0-3.626-1.627-3.626-3.627
	V16.392c0-2,1.626-3.627,3.626-3.627h17.083v-1.689c0-0.793,0.592-1.438,1.32-1.438c0.729,0,1.321,0.645,1.321,1.438v1.689h16.926
	c2,0,3.627,1.627,3.627,3.627v21.106c0,2-1.627,3.627-3.627,3.627H31.515v0.596c0.012,0.012,0.025,0.023,0.037,0.035l6.709,6.711
	c0.561,0.561,0.598,1.436,0.082,1.951C38.109,50.652,37.79,50.781,37.445,50.781 M30.516,43.041l6.583,6.587
	c0.143,0.142,0.352,0.269,0.537,0.083c0.121-0.122,0.082-0.372-0.082-0.537l-6.708-6.711c-0.028-0.027-0.06-0.053-0.096-0.075
	l-0.234-0.147v-2.115h17.925c1.449,0,2.627-1.178,2.627-2.627V16.392c0-1.449-1.178-2.627-2.627-2.627H30.516v-2.689
	c0-0.233-0.15-0.438-0.321-0.438c-0.17,0-0.32,0.205-0.32,0.438v2.689H11.792c-1.448,0-2.626,1.178-2.626,2.627v21.106
	c0,1.449,1.178,2.627,2.626,2.627h18.083v2.107l-0.244,0.146c-0.042,0.023-0.079,0.053-0.111,0.084l-6.708,6.711
	c-0.089,0.089-0.145,0.205-0.152,0.319c-0.004,0.052,0.001,0.149,0.069,0.218c0.186,0.186,0.395,0.059,0.537-0.083l6.609-6.612
	v3.004c0,0.232,0.15,0.438,0.32,0.438c0.171,0,0.321-0.205,0.321-0.438V43.041z M48.441,39.404H11.792
	c-1.051,0-1.907-0.855-1.907-1.906V16.392c0-1.052,0.856-1.908,1.907-1.908h36.649c1.053,0,1.908,0.856,1.908,1.908v21.106
	C50.349,38.548,49.494,39.404,48.441,39.404 M11.792,15.483c-0.5,0-0.907,0.407-0.907,0.908v21.106c0,0.5,0.407,0.906,0.907,0.906
	h36.649c0.5,0,0.908-0.406,0.908-0.906V16.392c0-0.501-0.408-0.908-0.908-0.908H11.792z M16.767,34.402
	c-1.166,0-2.115-0.949-2.115-2.115c0-1.167,0.949-2.116,2.115-2.116c0.22,0,0.439,0.035,0.647,0.102l3.265-3.266
	c-0.007-0.065-0.01-0.129-0.01-0.192c0-1.167,0.949-2.116,2.116-2.116c0.852,0,1.619,0.52,1.946,1.292l6.969,2.692
	c0.567-0.456,1.375-0.588,2.06-0.332l8.322-6.204c0.029-1.141,0.967-2.06,2.115-2.06c1.166,0,2.113,0.949,2.113,2.115
	c0,1.167-0.947,2.116-2.113,2.116c-0.241,0-0.481-0.042-0.707-0.122l-8.355,6.229c-0.049,1.124-0.978,2.022-2.113,2.022
	c-0.885,0-1.66-0.543-1.971-1.352l-6.901-2.666c-0.497,0.422-1.188,0.596-1.829,0.449l-3.439,3.439
	C18.864,33.47,17.921,34.402,16.767,34.402 M16.767,31.17c-0.615,0-1.115,0.5-1.115,1.116c0,0.613,0.5,1.115,1.115,1.115
	c0.615,0,1.115-0.502,1.115-1.115c0-0.04-0.002-0.079-0.006-0.117l-0.023-0.236l4.208-4.209l0.307,0.125
	c0.445,0.18,0.97,0.045,1.274-0.322l0.23-0.276l8.006,3.093l0.062,0.254c0.123,0.5,0.567,0.85,1.082,0.85
	c0.615,0,1.115-0.5,1.115-1.115c0-0.036-0.002-0.07-0.006-0.105l-0.027-0.281l9.279-6.917l0.281,0.154
	c0.165,0.09,0.344,0.135,0.533,0.135c0.613,0,1.113-0.501,1.113-1.116c0-0.614-0.5-1.115-1.113-1.115
	c-0.615,0-1.116,0.501-1.116,1.115c0,0.044,0.004,0.087,0.009,0.129l0.034,0.287l-9.269,6.908l-0.283-0.163
	c-0.448-0.255-1.041-0.157-1.385,0.231l-0.23,0.261l-8.033-3.104l-0.068-0.24c-0.135-0.478-0.576-0.812-1.071-0.812
	c-0.615,0-1.116,0.5-1.116,1.116c0,0.081,0.01,0.164,0.031,0.252l0.063,0.271l-4.142,4.143l-0.327-0.177
	C17.13,31.214,16.954,31.17,16.767,31.17"/>
</svg>
