<?xml version="1.0" encoding="utf-8"?>
<!-- Generator: Adobe Illustrator 15.0.0, SVG Export Plug-In . SVG Version: 6.00 Build 0)  -->
<!DOCTYPE svg PUBLIC "-//W3C//DTD SVG 1.1//EN" "http://www.w3.org/Graphics/SVG/1.1/DTD/svg11.dtd">
<svg version="1.1" id="Layer_1" xmlns="http://www.w3.org/2000/svg" xmlns:xlink="http://www.w3.org/1999/xlink" x="0px" y="0px"
	 width="35.953px" height="35.951px" viewBox="0 0 35.953 35.951" enable-background="new 0 0 35.953 35.951" xml:space="preserve">
<path d="M21.24,18.368l-0.454-0.451l0.454-0.451l6.192-6.195c0.209-0.208,0.325-0.489,0.325-0.787
	c-0.003-0.296-0.116-0.574-0.325-0.782l-1.24-1.241c-0.212-0.21-0.49-0.324-0.786-0.324c-0.298,0-0.576,0.114-0.787,0.324
	l-6.19,6.193l-0.452,0.454l-0.453-0.454L11.333,8.46c-0.213-0.21-0.491-0.324-0.789-0.324c-0.296,0-0.575,0.114-0.785,0.324
	L8.522,9.699c-0.21,0.21-0.326,0.488-0.326,0.787c0,0.295,0.116,0.576,0.326,0.784l6.193,6.195l0.451,0.451l-0.451,0.451
	l-6.193,6.195c-0.21,0.208-0.326,0.486-0.326,0.782s0.116,0.576,0.326,0.787l1.238,1.239c0.208,0.209,0.489,0.323,0.785,0.323
	c0.298,0,0.576-0.114,0.789-0.323l6.191-6.194l0.453-0.449l0.452,0.451l6.19,6.192c0.211,0.209,0.491,0.323,0.787,0.323
	s0.574-0.114,0.786-0.325l1.24-1.237c0.209-0.211,0.325-0.491,0.325-0.787c-0.003-0.296-0.116-0.574-0.325-0.782L21.24,18.368z"/>
<path d="M31.73,0H4.224C1.893,0,0,1.891,0,4.225v27.503c0,2.334,1.893,4.223,4.225,4.223H31.73c2.331,0,4.223-1.889,4.223-4.223
	V4.225C35.953,1.891,34.061,0,31.73,0 M32.957,31.728c0,0.687-0.54,1.228-1.227,1.228H4.224c-0.688,0-1.229-0.541-1.229-1.228V4.225
	c0-0.688,0.542-1.229,1.229-1.229h27.49l0.012-0.013c0.688,0,1.23,0.555,1.23,1.243V31.728z"/>
</svg>
