<?xml version="1.0" encoding="utf-8"?>
<!-- Generator: Adobe Illustrator 18.1.0, SVG Export Plug-In . SVG Version: 6.00 Build 0)  -->
<svg version="1.1" id="Layer_1" xmlns="http://www.w3.org/2000/svg" xmlns:xlink="http://www.w3.org/1999/xlink" x="0px" y="0px"
	 viewBox="-327 108.9 36.5 36.4" enable-background="new -327 108.9 36.5 36.4" xml:space="preserve">
<path fill="#FFE13A" d="M-311.4,129.6c-0.8-0.8-2.1-0.8-3,0l-8.4,8.4v-4.6c0-1.2-0.9-2.2-2.1-2.2c-1.2,0-2.1,1-2.1,2.2l0,9.5
	c0,1.2,0.9,2.2,2.1,2.2c0,0,0.1,0,0.1,0c0,0,0.1,0,0.1,0h9.4c1.2,0,2.2-0.9,2.2-2.1c0-1.2-1-2.1-2.2-2.1l-4.6,0l8.5-8.5
	C-310.5,131.8-310.5,130.5-311.4,129.6"/>
<path fill="#FFE13A" d="M-306.1,124.5c0.8,0.8,2.1,0.8,3,0l8.4-8.4v4.6c0,1.2,0.9,2.2,2.1,2.2c1.2,0,2.1-1,2.1-2.2l0-9.5
	c0-1.2-0.9-2.2-2.1-2.2c0,0-0.1,0-0.1,0c0,0-0.1,0-0.1,0h-9.4c-1.2,0-2.2,0.9-2.2,2.1c0,1.2,1,2.1,2.2,2.1l4.6,0l-8.5,8.5
	C-306.9,122.4-306.9,123.7-306.1,124.5"/>
<path fill="#FFE13A" d="M-311.4,124.5c0.8-0.8,0.8-2.1,0-3l-8.4-8.4h4.6c1.2,0,2.2-0.9,2.2-2.1c0-1.2-1-2.1-2.2-2.1l-9.5,0
	c-1.2,0-2.2,0.9-2.2,2.1c0,0,0,0.1,0,0.1c0,0,0,0.1,0,0.1v9.4c0,1.2,0.9,2.2,2.1,2.2c1.2,0,2.1-1,2.1-2.2l0-4.6l8.5,8.5
	C-313.5,125.4-312.2,125.4-311.4,124.5"/>
<path fill="#FFE13A" d="M-306.1,129.7c-0.8,0.8-0.8,2.1,0,3l8.4,8.4h-4.6c-1.2,0-2.2,0.9-2.2,2.1c0,1.2,1,2.1,2.2,2.1l9.5,0
	c1.2,0,2.2-0.9,2.2-2.1c0,0,0-0.1,0-0.1c0,0,0-0.1,0-0.1v-9.4c0-1.2-0.9-2.2-2.1-2.2s-2.1,1-2.1,2.2l0,4.6l-8.5-8.5
	C-304,128.9-305.3,128.9-306.1,129.7"/>
</svg>
