<?xml version="1.0" encoding="utf-8"?>
<!DOCTYPE svg PUBLIC "-//W3C//DTD SVG 1.1//EN" "http://www.w3.org/Graphics/SVG/1.1/DTD/svg11.dtd">
<svg version="1.1" id="Layer_1" xmlns="http://www.w3.org/2000/svg" xmlns:xlink="http://www.w3.org/1999/xlink" x="0px" y="0px"
	 width="12.039px" height="16.809px" viewBox="0 0 12.039 16.809" enable-background="new 0 0 12.039 16.809" xml:space="preserve">
<path fill="#FFFFFF" d="M5.897,11.264c1.185,0,2.153-1.031,2.202-2.109h-0.01V3.506c0-1.217-1-2.204-2.217-2.204
	S3.656,2.29,3.656,3.506v5.649h0.04C3.746,10.233,4.711,11.264,5.897,11.264"/>
<path fill="#FFFFFF" d="M9.828,7.452c-0.336,0-0.6,0.273-0.6,0.608v1.035c0,1.878-1.524,3.407-3.401,3.407
	c-1.878,0-3.402-1.528-3.402-3.407V8.06c0-0.335-0.279-0.608-0.616-0.608c-0.335,0-0.615,0.273-0.615,0.608v1.035
	c0,2.403,1.846,4.384,4.186,4.603v1.183H3.384c-0.337,0-0.608,0.279-0.608,0.615s0.271,0.616,0.608,0.616h5.027
	c0.336,0,0.608-0.28,0.608-0.616S8.747,14.88,8.411,14.88H6.458v-1.209c2.277-0.315,3.97-2.247,3.97-4.577V8.06
	C10.427,7.725,10.164,7.452,9.828,7.452"/>
<line fill="none" stroke="#E52629" stroke-width="2" stroke-linecap="round" stroke-miterlimit="10" x1="1" y1="15.809" x2="11.039" y2="1"/>
</svg>
