<?xml version="1.0" encoding="utf-8"?>
<!-- Generator: Adobe Illustrator 16.0.0, SVG Export Plug-In . SVG Version: 6.00 Build 0)  -->
<!DOCTYPE svg PUBLIC "-//W3C//DTD SVG 1.1//EN" "http://www.w3.org/Graphics/SVG/1.1/DTD/svg11.dtd">
<svg version="1.1" id="Layer_1" xmlns="http://www.w3.org/2000/svg" xmlns:xlink="http://www.w3.org/1999/xlink" x="0px" y="0px"
	 width="45.157px" height="45.157px" viewBox="0 0 45.157 45.157" enable-background="new 0 0 45.157 45.157" xml:space="preserve">
<path d="M43.884,10.171H36.26c-0.703,0-1.273-0.569-1.273-1.272V1.273C34.986,0.57,34.416,0,33.713,0h-4.449
	c-0.702,0-1.272,0.57-1.272,1.273v14.62c0,0.702,0.57,1.272,1.272,1.272h14.62c0.703,0,1.273-0.57,1.273-1.272v-4.449
	C45.157,10.741,44.587,10.171,43.884,10.171"/>
<path d="M10.172,1.273v7.624c0,0.704-0.57,1.274-1.273,1.274H1.273C0.57,10.172,0,10.741,0,11.444v4.449
	c0,0.703,0.57,1.272,1.273,1.272h14.62c0.703,0,1.272-0.569,1.272-1.272V1.273C17.166,0.57,16.597,0,15.894,0h-4.449
	C10.741,0,10.172,0.57,10.172,1.273"/>
<path d="M1.273,34.986h7.624c0.704,0,1.274,0.57,1.274,1.273v7.625c0,0.702,0.569,1.272,1.272,1.272h4.449
	c0.703,0,1.273-0.57,1.273-1.272v-14.62c0-0.703-0.57-1.273-1.273-1.273H1.273c-0.703,0-1.272,0.57-1.272,1.273v4.448
	C0.001,34.416,0.57,34.986,1.273,34.986"/>
<path d="M34.986,43.884V36.26c0-0.704,0.57-1.273,1.273-1.273h7.625c0.702,0,1.272-0.57,1.272-1.273v-4.449
	c0-0.703-0.57-1.272-1.272-1.272h-14.62c-0.703,0-1.273,0.569-1.273,1.272v14.62c0,0.703,0.57,1.273,1.273,1.273h4.448
	C34.416,45.157,34.986,44.587,34.986,43.884"/>
</svg>
