<?xml version="1.0" encoding="utf-8"?>
<!-- Generator: Adobe Illustrator 16.0.0, SVG Export Plug-In . SVG Version: 6.00 Build 0)  -->
<!DOCTYPE svg PUBLIC "-//W3C//DTD SVG 1.1//EN" "http://www.w3.org/Graphics/SVG/1.1/DTD/svg11.dtd">
<svg version="1.1" id="Layer_1" xmlns="http://www.w3.org/2000/svg" xmlns:xlink="http://www.w3.org/1999/xlink" x="0px" y="0px"
	 width="34.005px" height="36.87px" viewBox="0 0 34.005 36.87" enable-background="new 0 0 34.005 36.87" xml:space="preserve">
<path d="M5.198,36.87c-0.415,0-1.825-0.032-2.566-0.45l-0.205-0.109C1.579,35.866,0,35.038,0,33.37V3.61
	c0-0.888,1.007-2.368,1.87-2.903c0.868-0.538,2.562-1.203,4.619-0.148l25.614,14.258c1.15,0.641,1.877,1.787,1.9,2.99
	c0.023,1.275-0.582,2.416-1.62,3.051l-25.389,15.5C6.433,36.699,5.83,36.87,5.198,36.87 M5.042,32.864
	c0,0,24.447-14.739,24.447-14.925c0-0.185-24.84-13.825-24.84-13.825C4.602,4.108,4.495,3.941,4.198,4.035
	C4.026,4.073,4,4.319,4,4.371v28.245C4,32.91,4.351,33.344,5.042,32.864"/>
</svg>
