<?xml version="1.0" encoding="utf-8"?>
<!-- Generator: Adobe Illustrator 16.0.0, SVG Export Plug-In . SVG Version: 6.00 Build 0)  -->
<!DOCTYPE svg PUBLIC "-//W3C//DTD SVG 1.1//EN" "http://www.w3.org/Graphics/SVG/1.1/DTD/svg11.dtd">
<svg version="1.1" id="Layer_1" xmlns="http://www.w3.org/2000/svg" xmlns:xlink="http://www.w3.org/1999/xlink" x="0px" y="0px"
	 width="35.409px" height="33.813px" viewBox="0 0 35.409 33.813" enable-background="new 0 0 35.409 33.813" xml:space="preserve">
<path d="M19.071,0.992l3.195,9.835c0.192,0.592,0.743,0.993,1.365,0.993h10.34c1.391,0,1.969,1.78,0.843,2.598l-8.362,6.072
	c-0.504,0.366-0.715,1.015-0.522,1.606l3.195,9.83c0.43,1.324-1.084,2.424-2.21,1.605l-8.366-6.079
	c-0.503-0.364-1.185-0.364-1.688,0l-8.365,6.078c-1.125,0.817-2.64-0.282-2.209-1.606l3.194-9.828
	c0.192-0.592-0.019-1.24-0.521-1.606l-8.364-6.072C-0.531,13.6,0.048,11.82,1.438,11.82h10.339c0.622,0,1.175-0.401,1.366-0.993
	l3.196-9.835C16.769-0.331,18.641-0.331,19.071,0.992"/>
</svg>
