<?xml version="1.0" encoding="utf-8"?>
<!-- Generator: Adobe Illustrator 16.0.0, SVG Export Plug-In . SVG Version: 6.00 Build 0)  -->
<!DOCTYPE svg PUBLIC "-//W3C//DTD SVG 1.1//EN" "http://www.w3.org/Graphics/SVG/1.1/DTD/svg11.dtd">
<svg version="1.1" id="Layer_1" xmlns="http://www.w3.org/2000/svg" xmlns:xlink="http://www.w3.org/1999/xlink" x="0px" y="0px"
	 width="39.223px" height="26.817px" viewBox="0 0 39.223 26.817" enable-background="new 0 0 39.223 26.817" xml:space="preserve">
<path d="M20.094,0.004c3.765,0.113,7.225,1.213,10.394,3.233c3.86,2.461,6.68,5.84,8.688,9.924c0.063,0.13,0.064,0.346,0.002,0.474
	c-2.555,5.125-6.262,9.106-11.557,11.448c-4.064,1.799-8.29,2.228-12.621,1.15c-5.608-1.395-9.89-4.679-13.107-9.407
	c-0.682-1.001-1.234-2.091-1.825-3.151c-0.076-0.138-0.091-0.377-0.023-0.516C2.393,8.395,5.8,4.636,10.562,2.19
	C13.55,0.656,16.733-0.062,20.094,0.004 M19.907,3.233c-1.937,0.015-3.531,0.233-5.075,0.722C9.896,5.519,6.312,8.73,3.728,13.141
	c-0.078,0.134-0.06,0.398,0.021,0.541c1.732,3.034,4.035,5.537,7.043,7.335c4.714,2.816,9.68,3.374,14.827,1.384
	c4.354-1.683,7.544-4.738,9.878-8.737c0.141-0.238,0.082-0.397-0.034-0.596c-1.038-1.766-2.269-3.381-3.765-4.785
	C28.294,5.09,24.3,3.308,19.907,3.233"/>
</svg>
