<?xml version="1.0" encoding="utf-8"?>
<!-- Generator: Adobe Illustrator 16.0.0, SVG Export Plug-In . SVG Version: 6.00 Build 0)  -->
<!DOCTYPE svg PUBLIC "-//W3C//DTD SVG 1.1//EN" "http://www.w3.org/Graphics/SVG/1.1/DTD/svg11.dtd">
<svg version="1.1" id="Layer_1" xmlns="http://www.w3.org/2000/svg" xmlns:xlink="http://www.w3.org/1999/xlink" x="0px" y="0px"
	 width="40px" height="34.943px" viewBox="0 0 40 34.943" enable-background="new 0 0 40 34.943" xml:space="preserve">
<path fill="#999999" d="M36.913,0.014L3.048,0C0.897-0.022,0,0.765,0,2.672V26.11c0,1.835,1.71,2.64,3.523,2.637l4.445-0.021
	C8.445,28.731,9,29.161,9,29.636v4.434c0,0.7,0.901,1.117,1.475,0.716c0.004-0.002,0.064-0.005,0.067-0.008
	c2.382-1.686,4.74-3.45,7.182-5.044c0.825-0.538,1.938-0.91,2.917-0.92l16.289,0.021c2.473-0.002,3.07-0.682,3.07-3.188V3.193
	C40,0.679,39.472,0.016,36.913,0.014 M28.52,19.34c0.566,0.563,0.566,1.484,0,2.051l-1.028,1.025c-0.565,0.565-1.481,0.565-2.051,0
	l-5.128-5.128l-5.128,5.128c-0.566,0.565-1.486,0.565-2.053,0l-1.025-1.025c-0.565-0.566-0.565-1.487,0-2.051l5.129-5.129
	l-5.129-5.129c-0.565-0.567-0.565-1.487,0-2.052l1.025-1.026c0.566-0.566,1.486-0.566,2.053,0l5.128,5.129l5.128-5.129
	c0.566-0.566,1.485-0.566,2.051,0l1.028,1.027c0.566,0.563,0.566,1.483,0,2.051l-5.129,5.129L28.52,19.34z"/>
</svg>
