<?xml version="1.0" encoding="utf-8"?>
<!-- Generator: Adobe Illustrator 16.0.0, SVG Export Plug-In . SVG Version: 6.00 Build 0)  -->
<!DOCTYPE svg PUBLIC "-//W3C//DTD SVG 1.1//EN" "http://www.w3.org/Graphics/SVG/1.1/DTD/svg11.dtd">
<svg version="1.1" id="Layer_1" xmlns="http://www.w3.org/2000/svg" xmlns:xlink="http://www.w3.org/1999/xlink" x="0px" y="0px"
	 width="33.31px" height="33.311px" viewBox="0 0 33.31 33.311" enable-background="new 0 0 33.31 33.311" xml:space="preserve">
<path d="M32.394,27.969l-7.33-7.33c1.275-2.066,2.048-4.477,2.048-7.083C27.111,6.068,21.042,0,13.555,0C6.068,0,0,6.068,0,13.555
	c0,7.486,6.068,13.554,13.555,13.554c2.607,0,5.019-0.771,7.082-2.045l7.333,7.33c1.223,1.222,3.201,1.222,4.424,0
	C33.615,31.172,33.615,29.191,32.394,27.969 M13.555,22.939c-5.182,0-9.384-4.203-9.384-9.384c0-5.182,4.202-9.384,9.384-9.384
	c5.183,0,9.386,4.202,9.386,9.384C22.94,18.736,18.737,22.939,13.555,22.939"/>
</svg>
