<?xml version="1.0" encoding="utf-8"?>
<!-- Generator: Adobe Illustrator 16.0.0, SVG Export Plug-In . SVG Version: 6.00 Build 0)  -->
<!DOCTYPE svg PUBLIC "-//W3C//DTD SVG 1.1//EN" "http://www.w3.org/Graphics/SVG/1.1/DTD/svg11.dtd">
<svg version="1.1" id="Layer_1" xmlns="http://www.w3.org/2000/svg" xmlns:xlink="http://www.w3.org/1999/xlink" x="0px" y="0px"
	 width="46.52px" height="46.518px" viewBox="0 0 46.52 46.518" enable-background="new 0 0 46.52 46.518" xml:space="preserve">
<path d="M41.053,0H5.466C2.447,0,0,2.447,0,5.466v35.587c0,3.019,2.447,5.465,5.466,5.465h35.587c3.02,0,5.467-2.446,5.467-5.465
	V5.466C46.52,2.447,44.072,0,41.053,0 M42.643,41.053c0,0.889-0.699,1.589-1.59,1.589H5.466c-0.89,0-1.589-0.7-1.589-1.589V5.466
	c0-0.89,0.699-1.589,1.589-1.589h35.569l0.014-0.015c0.89,0,1.594,0.714,1.594,1.604V41.053z"/>
<path d="M34.955,12.426l-2.853-1.632c-0.154-0.088-0.329-0.135-0.506-0.135c-0.364,0-0.702,0.196-0.883,0.51l-0.018,0.028
	l-10.514,16.24l-5.7-5.067c-0.185-0.165-0.424-0.256-0.672-0.256c-0.29,0-0.568,0.123-0.761,0.338l-2.193,2.44
	c-0.18,0.201-0.271,0.459-0.255,0.727c0.015,0.27,0.135,0.516,0.338,0.695l8.576,7.77c0.427,0.425,0.98,0.668,1.519,0.668
	c0.266,0,0.64-0.061,0.947-0.342l1.012-1.567c0.026-0.042,0.053-0.076,0.077-0.103l12.271-18.954
	c0.127-0.227,0.159-0.49,0.091-0.743C35.362,12.782,35.192,12.562,34.955,12.426"/>
</svg>
