<?xml version="1.0" encoding="utf-8"?>
<!-- Generator: Adobe Illustrator 16.0.0, SVG Export Plug-In . SVG Version: 6.00 Build 0)  -->
<!DOCTYPE svg PUBLIC "-//W3C//DTD SVG 1.1//EN" "http://www.w3.org/Graphics/SVG/1.1/DTD/svg11.dtd">
<svg version="1.1" id="Layer_1" xmlns="http://www.w3.org/2000/svg" xmlns:xlink="http://www.w3.org/1999/xlink" x="0px" y="0px"
	 width="40px" height="34.944px" viewBox="0 0 40 34.944" enable-background="new 0 0 40 34.944" xml:space="preserve">
<path fill="#999999" d="M36.666,0.015L2.925,0C0.774-0.021,0,0.766,0,2.674v23.437c0,1.835,1.464,2.64,3.278,2.636l4.568-0.02
	C8.322,28.732,9,29.161,9,29.638v4.433c0,0.701,0.656,1.118,1.229,0.715c0.004-0.002-0.061-0.005-0.057-0.007
	c2.383-1.686,4.679-3.451,7.12-5.044c0.825-0.538,1.907-0.911,2.888-0.919l16.519,0.021C39.172,28.833,40,28.155,40,25.649V3.195
	C40,0.68,39.226,0.017,36.666,0.015 M28.685,8.298l-8.506,13.138c-0.011,0.015-0.024,0.022-0.031,0.036l-0.732,1.135
	c-0.591,0.592-1.646,0.504-2.351-0.196l-5.909-5.353c-0.47-0.417-0.513-1.133-0.093-1.603l1.516-1.686
	c0.42-0.466,1.14-0.507,1.605-0.091l3.56,3.164l6.991-10.798c0.312-0.546,1.009-0.732,1.555-0.421l1.974,1.129
	C28.807,7.066,28.996,7.757,28.685,8.298"/>
</svg>
