<?xml version="1.0" encoding="utf-8"?>
<!-- Generator: Adobe Illustrator 18.1.0, SVG Export Plug-In . SVG Version: 6.00 Build 0)  -->
<svg version="1.1" id="Layer_1" xmlns="http://www.w3.org/2000/svg" xmlns:xlink="http://www.w3.org/1999/xlink" x="0px" y="0px"
	 viewBox="-335 116.7 20.2 20.6" enable-background="new -335 116.7 20.2 20.6" xml:space="preserve">
<path fill="#FFE13A" d="M-333.8,119.4c-0.7,0-1.2-0.5-1.2-1.2v-0.4c0-0.6,0.5-1.2,1.2-1.2h17.8c0.7,0,1.2,0.5,1.2,1.2v0.4
	c0,0.6-0.5,1.2-1.2,1.2L-333.8,119.4L-333.8,119.4z"/>
<path fill="#FFE13A" d="M-324.9,137.3c0.4,0,0.9-0.2,1.2-0.5l8.3-8.3c0.5-0.5,0.5-1.4,0-1.9l-1.4-1.4c-0.5-0.5-1.4-0.5-1.9,0
	l-6.2,6.2l-6.2-6.2c-0.5-0.5-1.4-0.5-1.9,0l-1.4,1.4c-0.5,0.5-0.5,1.4,0,1.9l8.3,8.3C-325.8,137.1-325.3,137.3-324.9,137.3"/>
</svg>
