<?xml version="1.0" encoding="utf-8"?>
<!-- Generator: Adobe Illustrator 16.0.0, SVG Export Plug-In . SVG Version: 6.00 Build 0)  -->
<!DOCTYPE svg PUBLIC "-//W3C//DTD SVG 1.1//EN" "http://www.w3.org/Graphics/SVG/1.1/DTD/svg11.dtd">
<svg version="1.1" id="Layer_1" xmlns="http://www.w3.org/2000/svg" xmlns:xlink="http://www.w3.org/1999/xlink" x="0px" y="0px"
	 width="46.493px" height="37.097px" viewBox="0 0 46.493 37.097" enable-background="new 0 0 46.493 37.097" xml:space="preserve">
<path d="M27.321,29.966H7.364C2.507,29.966,0,27.157,0,22.602V7.365C0,2.727,2.697,0,7.364,0h31.764
	c4.691,0,7.365,2.599,7.365,7.365v15.237c0,3.915-1.522,7.049-7.406,6.729c1.294,2.202,2.987,4.662,3.005,4.687
	c0.37,0.554,0.428,1.26,0.148,1.866c-0.274,0.606-0.846,1.025-1.507,1.106c-0.562,0.069-1.127,0.106-1.677,0.106
	C34.418,37.097,30.38,34.636,27.321,29.966 M6.288,3.04c-2.062,0-3.546,1.678-3.546,3.742v16.175c0,2.062,1.484,3.74,3.546,3.74
	h22.319c0.722,0,1.56,0.309,1.757,1.001c0.92,3.231,4.502,5.662,8.147,6.238c-0.788-1.302-2.07-2.798-2.826-4.271
	c-0.323-0.63-0.295-1.387,0.075-1.994C36.132,27.068,36.79,26.6,37.5,26.6h2.996c1.725,0,3.323-1.873,3.255-3.644V6.782
	c0-2.064-1.679-3.742-3.74-3.742H6.288z"/>
<path d="M29.086,15.438c0,1.385,1.125,2.509,2.512,2.509c1.386,0,2.511-1.124,2.511-2.509c0-1.388-1.125-2.511-2.511-2.511
	C30.211,12.927,29.086,14.05,29.086,15.438"/>
<path d="M20.27,15.438c0,1.385,1.124,2.509,2.511,2.509c1.388,0,2.511-1.124,2.511-2.509c0-1.388-1.123-2.511-2.511-2.511
	C21.394,12.927,20.27,14.05,20.27,15.438"/>
<path d="M11.452,15.438c0,1.385,1.125,2.509,2.512,2.509s2.511-1.124,2.511-2.509c0-1.388-1.124-2.511-2.511-2.511
	S11.452,14.05,11.452,15.438"/>
</svg>
