<?xml version="1.0" encoding="utf-8"?>
<!-- Generator: Adobe Illustrator 16.0.0, SVG Export Plug-In . SVG Version: 6.00 Build 0)  -->
<!DOCTYPE svg PUBLIC "-//W3C//DTD SVG 1.1//EN" "http://www.w3.org/Graphics/SVG/1.1/DTD/svg11.dtd">
<svg version="1.1" id="Layer_1" xmlns="http://www.w3.org/2000/svg" xmlns:xlink="http://www.w3.org/1999/xlink" x="0px" y="0px"
	 width="47.157px" height="47.157px" viewBox="0 0 47.157 47.157" enable-background="new 0 0 47.157 47.157" xml:space="preserve">
<path d="M31.264,6.995h7.624c0.704,0,1.274,0.57,1.274,1.273v7.625c0,0.702,0.57,1.272,1.272,1.272h4.449
	c0.703,0,1.273-0.57,1.273-1.272V1.273C47.157,0.57,46.587,0,45.884,0h-14.62c-0.702,0-1.272,0.57-1.272,1.273v4.449
	C29.991,6.425,30.562,6.995,31.264,6.995"/>
<path d="M6.995,15.893V8.269c0-0.703,0.569-1.273,1.272-1.273h7.625c0.703,0,1.273-0.57,1.273-1.273V1.273
	C17.166,0.57,16.596,0,15.893,0H1.272C0.569,0,0,0.57,0,1.273v14.619c0,0.703,0.569,1.273,1.272,1.273h4.449
	C6.425,17.166,6.995,16.596,6.995,15.893"/>
<path d="M15.893,40.162H8.269c-0.704,0-1.273-0.57-1.273-1.272v-7.625c0-0.703-0.57-1.273-1.273-1.273H1.272
	C0.569,29.991,0,30.562,0,31.265v14.619c0,0.703,0.569,1.273,1.272,1.273h14.62c0.703,0,1.273-0.57,1.273-1.273v-4.448
	C17.166,40.732,16.596,40.162,15.893,40.162"/>
<path d="M40.162,31.265v7.624c0,0.704-0.57,1.273-1.273,1.273h-7.625c-0.703,0-1.272,0.57-1.272,1.273v4.449
	c0,0.703,0.569,1.272,1.272,1.272h14.62c0.703,0,1.273-0.569,1.273-1.272v-14.62c0-0.703-0.57-1.273-1.273-1.273h-4.449
	C40.731,29.991,40.162,30.562,40.162,31.265"/>
</svg>
