<?xml version="1.0" encoding="utf-8"?>
<!-- Generator: Adobe Illustrator 18.1.0, SVG Export Plug-In . SVG Version: 6.00 Build 0)  -->
<svg version="1.1" id="Layer_1" xmlns="http://www.w3.org/2000/svg" xmlns:xlink="http://www.w3.org/1999/xlink" x="0px" y="0px"
	 viewBox="-339 118.5 12 16.8" enable-background="new -339 118.5 12 16.8" xml:space="preserve">
<path fill="#FFFFFF" d="M-333.1,129.7c1.2,0,2.2-1,2.2-2.1h0V122c0-1.2-1-2.2-2.2-2.2c-1.2,0-2.2,1-2.2,2.2v5.6h0
	C-335.3,128.7-334.3,129.7-333.1,129.7"/>
<path fill="#FFFFFF" d="M-329.2,125.9c-0.3,0-0.6,0.3-0.6,0.6v1c0,1.9-1.5,3.4-3.4,3.4c-1.9,0-3.4-1.5-3.4-3.4v-1
	c0-0.3-0.3-0.6-0.6-0.6c-0.3,0-0.6,0.3-0.6,0.6v1c0,2.4,1.8,4.4,4.2,4.6v1.2h-2c-0.3,0-0.6,0.3-0.6,0.6s0.3,0.6,0.6,0.6h5
	c0.3,0,0.6-0.3,0.6-0.6c0-0.3-0.3-0.6-0.6-0.6h-2v-1.2c2.3-0.3,4-2.2,4-4.6v-1C-328.6,126.2-328.8,125.9-329.2,125.9"/>
<line fill="none" stroke="#E52629" stroke-width="2" stroke-linecap="round" stroke-miterlimit="10" x1="-338" y1="134.3" x2="-328" y2="119.5"/>
</svg>
