<?xml version="1.0" encoding="utf-8"?>
<!-- Generator: Adobe Illustrator 16.0.0, SVG Export Plug-In . SVG Version: 6.00 Build 0)  -->
<!DOCTYPE svg PUBLIC "-//W3C//DTD SVG 1.1//EN" "http://www.w3.org/Graphics/SVG/1.1/DTD/svg11.dtd">
<svg version="1.1" id="Layer_1" xmlns="http://www.w3.org/2000/svg" xmlns:xlink="http://www.w3.org/1999/xlink" x="0px" y="0px"
	 width="46.518px" height="46.518px" viewBox="0 0 46.518 46.518" enable-background="new 0 0 46.518 46.518" xml:space="preserve">
<path d="M41.053,0H5.466C2.446,0,0,2.447,0,5.466v35.587c0,3.019,2.446,5.465,5.466,5.465h35.587c3.019,0,5.465-2.446,5.465-5.465
	V5.466C46.518,2.447,44.071,0,41.053,0 M42.642,41.053c0,0.889-0.699,1.589-1.589,1.589H5.466c-0.89,0-1.589-0.7-1.589-1.589V5.466
	c0-0.89,0.699-1.589,1.589-1.589h35.569l0.014-0.015c0.889,0,1.593,0.714,1.593,1.604V41.053z"/>
<path d="M34.185,20.612H18.847c-0.753,0-1.362-0.61-1.362-1.364v-0.83c0-0.753,0.609-1.363,1.362-1.363h15.338
	c0.753,0,1.363,0.61,1.363,1.363v0.83C35.548,20.002,34.938,20.612,34.185,20.612"/>
<path d="M17.463,11.381v-1.112c0-0.667,0.541-1.208,1.207-1.208h15.663c0.667,0,1.207,0.541,1.207,1.208v1.112
	c0,0.667-0.54,1.207-1.207,1.207H18.67C18.004,12.588,17.463,12.048,17.463,11.381"/>
<path d="M17.465,27.525v-1.164c0-0.653,0.53-1.184,1.183-1.184h15.711c0.654,0,1.184,0.53,1.184,1.184v1.164
	c0,0.652-0.529,1.183-1.184,1.183H18.647C17.995,28.708,17.465,28.177,17.465,27.525"/>
<path d="M13.106,20.603h-1.306c-0.616,0-1.115-0.499-1.115-1.116v-1.313c0-0.616,0.499-1.115,1.115-1.115h1.306
	c0.615,0,1.115,0.499,1.115,1.115v1.313C14.222,20.104,13.722,20.603,13.106,20.603"/>
<path d="M13.304,12.6H11.62c-0.506,0-0.917-0.411-0.917-0.918V9.974c0-0.506,0.411-0.917,0.917-0.917h1.684
	c0.507,0,0.918,0.411,0.918,0.917v1.708C14.222,12.188,13.811,12.6,13.304,12.6"/>
<path d="M11.629,25.159h1.667c0.511,0,0.926,0.415,0.926,0.927v1.691c0,0.512-0.415,0.926-0.926,0.926h-1.667
	c-0.512,0-0.927-0.414-0.927-0.926v-1.691C10.702,25.574,11.117,25.159,11.629,25.159"/>
<path d="M17.465,35.586v-1.164c0-0.653,0.53-1.183,1.183-1.183h15.711c0.654,0,1.184,0.529,1.184,1.183v1.164
	c0,0.653-0.529,1.183-1.184,1.183H18.647C17.995,36.769,17.465,36.24,17.465,35.586"/>
<path d="M11.629,33.22h1.667c0.511,0,0.926,0.416,0.926,0.927v1.692c0,0.511-0.415,0.926-0.926,0.926h-1.667
	c-0.512,0-0.927-0.415-0.927-0.926v-1.692C10.702,33.636,11.117,33.22,11.629,33.22"/>
</svg>
