<?xml version="1.0" encoding="utf-8"?>
<!-- Generator: Adobe Illustrator 18.1.0, SVG Export Plug-In . SVG Version: 6.00 Build 0)  -->
<svg version="1.1" id="Layer_1" xmlns="http://www.w3.org/2000/svg" xmlns:xlink="http://www.w3.org/1999/xlink" x="0px" y="0px"
	 viewBox="-328 113.5 33.6 26.8" enable-background="new -328 113.5 33.6 26.8" xml:space="preserve">
<path fill="#FFFFFF" d="M-311.1,139L-311.1,139C-311.1,139-311.2,139-311.1,139L-311.1,139c-0.1,0-0.2,0-0.2,0
	c-0.3-0.1-0.6-0.2-0.7-0.5l-7-6.4h-7.6c-0.7,0-1.3-0.6-1.3-1.3v-8.9c0-0.7,0.6-1.3,1.3-1.3h7.3l7.5-6.9c0.4-0.4,1.2-0.4,1.6,0.1
	c0.2,0.2,0.3,0.5,0.3,0.8c0,0,0,0.1,0,0.1v22.7c0.1,0.3,0,0.7-0.2,1C-310.3,138.8-310.7,139-311.1,139"/>
<path fill="#FFFFFF" d="M-301.6,135.6c-0.9,1.3-1.5,1.4-2.2,0.9c-0.5-0.3-0.8-1-0.6-1.4c0.3-0.4,3.3-3.8,3.3-8.3
	c0-4.4-2.8-7.9-3-8.4c-0.3-0.5-0.3-1,0.4-1.5c0.7-0.5,1.3-0.3,1.9,0.8c0,0,3,4.6,3,9C-298.7,131.2-301.6,135.6-301.6,135.6
	 M-304.7,132.2c-0.6,1.1-1.1,1.3-1.8,1c-0.6-0.2-0.8-0.7-0.6-1.2c0.1-0.3,1.7-2.5,1.7-5.1c0-2.6-1.6-4.9-1.7-5.2
	c-0.1-0.5,0.5-1.1,1.1-1.1c0.4-0.1,0.6,0,1.3,1.1c0,0,1.6,2.6,1.6,5.2C-303.1,129.5-304.7,132.2-304.7,132.2"/>
</svg>
