<?xml version="1.0" encoding="utf-8"?>
<!-- Generator: Adobe Illustrator 16.0.0, SVG Export Plug-In . SVG Version: 6.00 Build 0)  -->
<!DOCTYPE svg PUBLIC "-//W3C//DTD SVG 1.1//EN" "http://www.w3.org/Graphics/SVG/1.1/DTD/svg11.dtd">
<svg version="1.1" id="Layer_1" xmlns="http://www.w3.org/2000/svg" xmlns:xlink="http://www.w3.org/1999/xlink" x="0px" y="0px"
	 width="58.184px" height="58.184px" viewBox="0 0 58.184 58.184" enable-background="new 0 0 58.184 58.184" xml:space="preserve">
<path d="M56.521,26.592h-4.258c-1.237-11-10.671-20.481-22.671-21.075V1.663c0-0.919-0.581-1.663-1.5-1.663s-1.5,0.744-1.5,1.663
	v3.898c-11,0.998-20.232,10.03-21.438,21.03H1.663c-0.919,0-1.663,0.581-1.663,1.5s0.744,1.5,1.663,1.5h3.388
	c0.406,13,10.541,22.999,23.541,23.236v3.692c0,0.919,0.581,1.663,1.5,1.663s1.5-0.744,1.5-1.663v-3.862
	c11-1.396,20.395-11.066,20.774-23.066h4.154c0.919,0,1.663-0.581,1.663-1.5S57.439,26.592,56.521,26.592 M31.592,49.299v-2.752
	c0-0.919-0.581-1.662-1.5-1.662s-1.5,0.743-1.5,1.662v2.956c-11-0.236-19.813-8.911-20.216-19.911h3.261
	c0.919,0,1.662-0.581,1.662-1.5s-0.743-1.5-1.662-1.5H8.515c1.176-9,9.077-16.73,18.077-17.702v2.747c0,0.919,0.581,1.662,1.5,1.662
	s1.5-0.743,1.5-1.662V8.841c10,0.583,18.098,7.751,19.311,17.751h-2.355c-0.919,0-1.662,0.581-1.662,1.5s0.743,1.5,1.662,1.5h2.495
	C48.67,39.592,41.592,47.93,31.592,49.299"/>
<path d="M28.709,23.536c-3.099,0-5.617,2.521-5.617,5.617c0,3.098,2.519,5.617,5.617,5.617c3.097,0,5.616-2.52,5.616-5.617
	C34.325,26.057,31.806,23.536,28.709,23.536"/>
</svg>
