<?xml version="1.0" encoding="utf-8"?>
<!-- Generator: Adobe Illustrator 16.0.0, SVG Export Plug-In . SVG Version: 6.00 Build 0)  -->
<!DOCTYPE svg PUBLIC "-//W3C//DTD SVG 1.1//EN" "http://www.w3.org/Graphics/SVG/1.1/DTD/svg11.dtd">
<svg version="1.1" id="Layer_1" xmlns="http://www.w3.org/2000/svg" xmlns:xlink="http://www.w3.org/1999/xlink" x="0px" y="0px"
	 width="46.438px" height="60.396px" viewBox="0 0 46.438 60.396" enable-background="new 0 0 46.438 60.396" xml:space="preserve">
<path d="M42.328,0c0.226,0.063,0.449,0.126,0.674,0.188c1.989,0.547,3.321,2.243,3.43,4.371c0.005,0.098,0.006,0.195,0.006,0.295
	c0,14.566,0.002,29.134-0.002,43.701c-0.001,2.305-1.315,4.097-3.419,4.667c-0.449,0.122-0.929,0.184-1.396,0.186
	c-3.716,0.014-7.432,0.013-11.146,0.005c-1.566-0.003-2.548-0.939-2.543-2.388c0.003-0.978,0.693-1.88,1.654-2.104
	c0.358-0.083,0.738-0.104,1.109-0.105c3.46-0.008,6.92-0.018,10.38,0.008c0.573,0.004,0.772-0.118,0.771-0.74
	c-0.019-14.253-0.018-28.506-0.002-42.759c0-0.567-0.155-0.724-0.725-0.724C29.188,4.616,17.254,4.616,5.32,4.602
	C4.756,4.601,4.594,4.751,4.595,5.322C4.609,19.575,4.61,33.827,4.592,48.08c0,0.618,0.188,0.766,0.77,0.743
	c1.079-0.043,2.162-0.011,3.243-0.014c0.211,0,0.422-0.018,0.681-0.029v-4.915c0.568,0.15,0.999,0.307,1.305,0.829
	c1.006,1.723,3.225,2.488,5.13,1.879c0.321-0.104,0.734-0.108,1.055-0.004c1.853,0.601,4.051-0.112,5.072-1.768
	c0.318-0.518,0.72-0.787,1.373-0.953v16.547h-0.118c-0.041-0.062-0.068-0.143-0.124-0.181c-2.139-1.431-4.284-2.852-6.415-4.293
	c-0.306-0.207-0.495-0.071-0.73,0.084c-1.976,1.321-3.955,2.638-5.934,3.953c-0.168,0.112-0.345,0.212-0.62,0.379v-6.922
	c-1.493,0-2.926,0.029-4.356-0.013c-0.62-0.02-1.265-0.099-1.849-0.296C1.12,52.445,0.002,50.7,0.002,48.425
	C-0.001,33.96,0,19.494,0,5.029c0-0.157-0.002-0.315,0.008-0.473c0.107-2.126,1.439-3.821,3.428-4.368
	C3.66,0.126,3.886,0.063,4.109,0H42.328z"/>
<path d="M23.217,11.643c3.752,0,7.503,0.007,11.255-0.004c1.04-0.003,1.914,0.301,2.388,1.282c0.775,1.606-0.27,3.204-2.146,3.326
	c-0.118,0.008-0.235,0.003-0.354,0.003c-7.444,0.001-14.889,0.001-22.332,0c-1.324,0-2.132-0.483-2.544-1.506
	c-0.515-1.279,0.304-2.787,1.659-3.028c0.346-0.061,0.703-0.07,1.056-0.07C15.871,11.641,19.544,11.643,23.217,11.643"/>
<path d="M21.922,32.986c-0.006,0.055,0.001,0.198-0.041,0.325c-0.139,0.427,0.013,0.646,0.431,0.795
	c1.682,0.605,2.037,2.54,0.683,3.703c-0.333,0.287-0.348,0.563-0.166,0.928c0.813,1.637-0.051,3.143-1.867,3.246
	c-0.413,0.024-0.629,0.192-0.723,0.608c-0.394,1.75-2.022,2.364-3.465,1.313c-0.37-0.271-0.698-0.252-1.064,0.016
	c-1.396,1.025-3.077,0.39-3.434-1.301c-0.094-0.442-0.32-0.618-0.763-0.639c-1.757-0.082-2.653-1.643-1.847-3.215
	c0.215-0.419,0.151-0.701-0.218-1.011c-1.261-1.058-0.892-3.079,0.667-3.618c0.473-0.163,0.587-0.375,0.512-0.859
	c-0.27-1.737,1.26-2.987,2.889-2.366c0.414,0.158,0.648,0.105,0.85-0.3c0.384-0.777,1.052-1.151,1.902-1.15
	c0.829,0.001,1.488,0.371,1.861,1.122c0.217,0.438,0.461,0.478,0.891,0.314C20.467,30.353,21.925,31.374,21.922,32.986
	 M16.171,40.919c2.006,0.083,3.745-1.593,3.827-3.687c0.078-2.004-1.622-3.759-3.697-3.816c-1.994-0.054-3.702,1.588-3.802,3.656
	C12.402,39.067,14.087,40.833,16.171,40.919"/>
<path d="M19.681,25.539c-2.556,0-5.11-0.006-7.665,0.003c-1.032,0.003-1.926-0.284-2.418-1.252c-0.832-1.63,0.265-3.292,2.199-3.372
	c0.511-0.021,1.022-0.004,1.533-0.004c4.717,0,9.435-0.003,14.151,0.002c1.598,0.001,2.623,0.894,2.66,2.292
	c0.028,1.074-0.793,2.079-1.858,2.249c-0.328,0.052-0.664,0.078-0.997,0.079C24.751,25.542,22.215,25.539,19.681,25.539"/>
</svg>
