<?xml version="1.0" encoding="utf-8"?>
<!-- Generator: Adobe Illustrator 16.0.0, SVG Export Plug-In . SVG Version: 6.00 Build 0)  -->
<!DOCTYPE svg PUBLIC "-//W3C//DTD SVG 1.1//EN" "http://www.w3.org/Graphics/SVG/1.1/DTD/svg11.dtd">
<svg version="1.1" id="Layer_1" xmlns="http://www.w3.org/2000/svg" xmlns:xlink="http://www.w3.org/1999/xlink" x="0px" y="0px"
	 width="46.623px" height="46.623px" viewBox="0 0 46.623 46.623" enable-background="new 0 0 46.623 46.623" xml:space="preserve">
<path d="M42.737,0H3.885C1.739,0,0,1.739,0,3.885v38.853c0,2.146,1.739,3.885,3.885,3.885h38.853c2.146,0,3.886-1.738,3.886-3.885
	V3.885C46.623,1.739,44.884,0,42.737,0 M36.089,13.057L23.532,32.453c-0.017,0.022-0.035,0.034-0.047,0.055l-1.08,1.674
	c-0.872,0.874-2.43,0.744-3.472-0.29l-8.724-7.902c-0.694-0.614-0.756-1.672-0.136-2.364l2.237-2.49
	c0.619-0.688,1.682-0.748,2.369-0.134l5.256,4.672l10.32-15.942c0.463-0.805,1.49-1.081,2.296-0.621l2.912,1.666
	C36.27,11.239,36.549,12.258,36.089,13.057"/>
</svg>
