<?xml version="1.0" encoding="utf-8"?>
<!-- Generator: Adobe Illustrator 16.0.0, SVG Export Plug-In . SVG Version: 6.00 Build 0)  -->
<!DOCTYPE svg PUBLIC "-//W3C//DTD SVG 1.1//EN" "http://www.w3.org/Graphics/SVG/1.1/DTD/svg11.dtd">
<svg version="1.1" id="Layer_1" xmlns="http://www.w3.org/2000/svg" xmlns:xlink="http://www.w3.org/1999/xlink" x="0px" y="0px"
	 width="40px" height="34.911px" viewBox="0 0 40 34.911" enable-background="new 0 0 40 34.911" xml:space="preserve">
<path fill="#999999" d="M40,3.192v22.433c0,2.504-0.924,3.183-3.396,3.186l-16.603-0.021c-0.979,0.008-2.048,0.38-2.873,0.918
	c-2.439,1.592-4.711,3.355-7.091,5.039c-0.003,0.003,0.104,0.005,0.101,0.008C9.565,35.156,9,34.739,9,34.039V29.61
	c0-0.477-0.723-0.905-1.199-0.909l-4.611,0.02C1.378,28.724,0,27.919,0,26.085V2.671C0,0.766,0.741-0.021,2.889,0l33.677,0.015
	C39.123,0.017,40,0.68,40,3.192 M18.466,18.611h1.062c0.637,0,0.928-0.228,1.061-0.784l0.053-0.459
	c0.318-2.679,4.617-3.4,4.617-7.564c0-3.132-2.812-4.99-5.811-4.99c-1.885,0-3.316,0.688-4.112,1.22
	c-0.61,0.398-0.61,0.901-0.187,1.485l0.451,0.663c0.371,0.584,0.982,0.584,1.593,0.265c0.478-0.238,1.167-0.53,1.963-0.53
	c1.459,0,2.397,0.955,2.397,2.202c0,2.706-4.554,3.582-4.554,6.951v0.425C17,18.209,17.75,18.611,18.466,18.611 M17,22.906
	c0,0.743,0.75,0.705,1.466,0.705h1.062c0.716,0,1.472,0.038,1.472-0.705v-0.929c0-0.716-0.756-1.366-1.472-1.366h-1.062
	c-0.716,0-1.466,0.65-1.466,1.366V22.906z"/>
</svg>
