<?xml version="1.0" encoding="utf-8"?>
<!-- Generator: Adobe Illustrator 16.0.0, SVG Export Plug-In . SVG Version: 6.00 Build 0)  -->
<!DOCTYPE svg PUBLIC "-//W3C//DTD SVG 1.1//EN" "http://www.w3.org/Graphics/SVG/1.1/DTD/svg11.dtd">
<svg version="1.1" id="Layer_1" xmlns="http://www.w3.org/2000/svg" xmlns:xlink="http://www.w3.org/1999/xlink" x="0px" y="0px"
	 width="35.185px" height="40.771px" viewBox="0 0 35.185 40.771" enable-background="new 0 0 35.185 40.771" xml:space="preserve">
<path d="M19.938,5.763V4.609h1.126V0h-6.945v4.609h1.127v1.153c-1.875,0.251-3.652,0.799-5.294,1.595L8.093,4.576L4.774,6.795
	l1.8,2.69C2.57,12.713,0,17.648,0,23.18c0,9.701,7.892,17.592,17.593,17.592c9.7,0,17.592-7.891,17.592-17.592
	C35.185,14.275,28.531,6.916,19.938,5.763 M17.593,36.081c-7.114,0-12.901-5.788-12.901-12.901c0-7.114,5.787-12.901,12.901-12.901
	c7.111,0,12.9,5.787,12.9,12.901C30.493,30.293,24.704,36.081,17.593,36.081"/>
<path d="M18.766,21.193v-7.2h-2.347v7.199c-0.688,0.409-1.173,1.129-1.173,1.987c0,1.295,1.05,2.345,2.346,2.345
	c1.295,0,2.346-1.05,2.346-2.345C19.938,22.321,19.453,21.603,18.766,21.193"/>
</svg>
