<?xml version="1.0" encoding="utf-8"?>
<!-- Generator: Adobe Illustrator 16.0.0, SVG Export Plug-In . SVG Version: 6.00 Build 0)  -->
<!DOCTYPE svg PUBLIC "-//W3C//DTD SVG 1.1//EN" "http://www.w3.org/Graphics/SVG/1.1/DTD/svg11.dtd">
<svg version="1.1" id="Layer_1" xmlns="http://www.w3.org/2000/svg" xmlns:xlink="http://www.w3.org/1999/xlink" x="0px" y="0px"
	 width="60.234px" height="60.233px" viewBox="0 0 60.234 60.233" enable-background="new 0 0 60.234 60.233" xml:space="preserve">
<path fill="#585555" d="M48.821,3.416c4.409,0,7.997,3.587,7.997,7.997v37.408c0,4.408-3.588,7.996-7.997,7.996H11.413
	c-4.41,0-7.997-3.588-7.997-7.996V11.413c0-4.41,3.587-7.997,7.997-7.997H48.821 M48.821,0H11.413C5.11,0,0,5.11,0,11.413v37.408
	c0,6.303,5.11,11.412,11.413,11.412h37.408c6.303,0,11.413-5.109,11.413-11.412V11.413C60.234,5.11,55.124,0,48.821,0"/>
<path fill="#585555" d="M30.321,39.679c3.905,0,7.318-3.295,7.454-7.195l0.003-15.88c0-4.14-3.384-7.507-7.541-7.507
	c-4.156,0-7.54,3.367-7.54,7.507l0.002,15.925C22.967,36.404,26.457,39.679,30.321,39.679 M25.282,16.604
	c0-2.696,2.223-4.882,4.937-4.882c2.543,0,4.659,1.92,4.911,4.398h-5.141c-0.245,0-0.398,0.13-0.398,0.309v1.109
	c0,0.179,0.153,0.305,0.398,0.305h5.204v1.94h-5.204c-0.245,0-0.398,0.079-0.398,0.258v1.109c0,0.179,0.153,0.356,0.398,0.356h5.204
	v1.832h-5.204c-0.245,0-0.398,0.136-0.398,0.316v1.108c0,0.18,0.153,0.299,0.398,0.299h5.204V27h-5.204
	c-0.245,0-0.398,0.087-0.398,0.266v1.109c0,0.179,0.153,0.349,0.398,0.349h5.204v1.831h-5.204c-0.245,0-0.398,0.144-0.398,0.323
	v1.109c0,0.179,0.153,0.399,0.398,0.399h5.204v0.027c-0.108,2.203-2.123,4.648-4.869,4.648c-2.744,0-4.827-2.453-5.042-4.672V16.604
	z"/>
<path fill="#585555" d="M41.441,27.803c-0.822,0-1.508,0.659-1.508,1.501v2.912c0,5.398-4.351,9.789-9.75,9.789
	c-5.398,0-9.749-4.391-9.749-9.789v-2.912c0-0.828-0.725-1.501-1.562-1.501c-0.837,0-1.562,0.673-1.562,1.501v2.912
	c0,6.527,5.076,12.121,11.545,12.734l0.197,0.018v3.9h-5.54c-0.828,0-1.501,0.671-1.501,1.508c0,0.838,0.673,1.509,1.501,1.509
	h14.139c0.827,0,1.501-0.671,1.501-1.509c0-0.837-0.674-1.508-1.501-1.508h-5.905v-3.963l0.18-0.025
	c6.387-0.875,11.022-6.202,11.022-12.664v-2.912C42.949,28.462,42.262,27.803,41.441,27.803"/>
</svg>
