<?xml version="1.0" encoding="utf-8"?>
<!-- Generator: Adobe Illustrator 18.1.1, SVG Export Plug-In . SVG Version: 6.00 Build 0)  -->
<svg version="1.1" id="Layer_1" xmlns="http://www.w3.org/2000/svg" xmlns:xlink="http://www.w3.org/1999/xlink" x="0px" y="0px"
	 viewBox="0 0 31.7 32" enable-background="new 0 0 31.7 32" xml:space="preserve">
<path fill="#FFFFFF" d="M1.1,18.5L1.1,18.5l12.6,12.6c1.3,1.3,3.2,1,4.6-0.4l0.7-0.7c1.3-1.3,1.6-2.9,0.3-4.2l-5.8-5.6h16.1
	c1.4,0,2.3-1.3,2.3-2.7v-2.9c0-1.4-1-2.4-2.4-2.4H13.2L19,6.4c1.3-1.3,1.5-3.2,0.1-4.5l-0.7-0.7c-1.3-1.3-3.6-1.7-5-0.4L0.9,13.4
	C-0.4,14.7-0.2,17.2,1.1,18.5z"/>
</svg>
