<?xml version="1.0" encoding="utf-8"?>
<!-- Generator: Adobe Illustrator 18.1.0, SVG Export Plug-In . SVG Version: 6.00 Build 0)  -->
<svg version="1.1" id="Layer_1" xmlns="http://www.w3.org/2000/svg" xmlns:xlink="http://www.w3.org/1999/xlink" x="0px" y="0px"
	 viewBox="-327 108.9 36 36.3" enable-background="new -327 108.9 36 36.3" xml:space="preserve">
<path fill="#FFFFFF" d="M-295.1,108.9h-27.7c-2.3,0-4.1,1.9-4.1,4.1v28.1c0,2.3,1.9,4.1,4.1,4.1h27.7c2.3,0,4.1-1.9,4.1-4.1v-28.1
	C-291,110.8-292.8,108.9-295.1,108.9z M-309,137.6c-2.8,0-5.4-1.2-6.5-2c-0.6-0.5-1-1.1-0.3-2.2l0.9-1.3c0.6-0.8,1.2-0.9,2.2-0.4
	c0.7,0.3,1.9,1.3,3.7,1.3c1.5,0,2.2-0.6,2.2-1.4c0-2.9-9-2.4-9-8.8c0-3.8,3.1-6.2,7.3-6.2c2.4,0,4.5,0.8,5.5,1.5
	c0.8,0.6,0.9,1.3,0.5,2.1l-0.7,1.3c-0.6,1.1-1.3,0.9-2.1,0.5c-0.9-0.5-1.9-0.9-3.2-0.9c-1.6,0-2.2,0.6-2.2,1.4c0,3,9,2.2,9,8.7
	C-301.8,134.7-304.4,137.6-309,137.6z"/>
</svg>
