<?xml version="1.0" encoding="utf-8"?>
<!-- Generator: Adobe Illustrator 16.0.0, SVG Export Plug-In . SVG Version: 6.00 Build 0)  -->
<!DOCTYPE svg PUBLIC "-//W3C//DTD SVG 1.1//EN" "http://www.w3.org/Graphics/SVG/1.1/DTD/svg11.dtd">
<svg version="1.1" id="Layer_1" xmlns="http://www.w3.org/2000/svg" xmlns:xlink="http://www.w3.org/1999/xlink" x="0px" y="0px"
	 width="42.802px" height="42.802px" viewBox="0 0 42.802 42.802" enable-background="new 0 0 42.802 42.802" xml:space="preserve">
<path d="M2.508,0c1.645,1.132,3.274,2.286,4.941,3.386c0.733,0.481,1.29,1.06,1.51,1.912c0.592,2.312,1.893,4.135,3.651,5.735
	c1.913,1.742,3.68,3.645,5.512,5.476c0.212,0.212,0.434,0.415,0.78,0.745c0.622-0.681,1.187-1.332,1.789-1.946
	c0.857-0.873,1.385-0.922,2.154-0.015c0.82,0.966,1.662,1.972,2.206,3.101c0.866,1.797,2.027,3.206,3.778,4.19
	c2.764,1.554,5.104,3.64,7.285,5.934c2.184,2.297,4.454,4.51,6.687,6.76v0.669c-2.285,2.285-4.57,4.57-6.855,6.855h-0.502
	c-0.666-0.625-1.346-1.236-1.997-1.877c-1.271-1.251-2.486-2.56-3.794-3.771c-3.04-2.819-5.672-5.954-7.836-9.505
	c-0.503-0.827-1.412-1.493-2.271-1.997c-1.487-0.872-3.073-1.563-4.264-2.881c-0.767-0.849-0.804-1.25-0.012-2.044
	c0.628-0.631,1.276-1.243,1.979-1.924c-0.243-0.266-0.436-0.49-0.644-0.698c-2.185-2.188-4.402-4.344-6.548-6.571
	c-0.975-1.012-2.041-1.825-3.402-2.151C4.826,8.945,3.598,7.859,2.669,6.251C1.882,4.888,0.896,3.64,0,2.341V1.839
	C0.612,1.226,1.226,0.612,1.839,0H2.508z"/>
<path d="M35.779,0c0.352,0.428,0.057,0.703-0.227,0.987c-1.045,1.042-2.071,2.104-3.135,3.126c-1.267,1.221-1.578,2.707-1.265,4.363
	c0.683,3.612,5.303,3.929,7.166,2.028c1.091-1.114,2.193-2.218,3.314-3.299c0.215-0.207,0.542-0.298,0.817-0.441
	c0.076,0.283,0.244,0.577,0.214,0.848c-0.192,1.706-0.293,3.439-0.677,5.104c-1.003,4.353-6.23,7.871-11.273,6.104
	c-0.239-0.084-0.657,0.021-0.853,0.193c-0.598,0.535-0.886,0.922-1.599,1.666c-0.504-0.705-0.967-1.272-1.34-1.894
	c-0.571-0.95-0.999-1.997-1.641-2.896c-0.636-0.893-1.458-1.652-2.267-2.545c1.185-0.621,0.862-1.351,0.594-2.585
	c-0.939-4.333,1.898-8.815,6.25-10.064c1.009-0.29,2.05-0.468,3.077-0.696H35.779z"/>
<path d="M0,37.451c0.419-1.443,1.414-2.47,2.447-3.494c3.544-3.511,7.059-7.05,10.581-10.582c0.215-0.215,0.04-0.108,0.306-0.425
	c1.465,2.03,3.466,3.098,5.51,4.123c0.578,0.289,1.066,0.759,1.68,1.207c-0.312,0.329-0.16,0.193-0.369,0.403
	c-4.077,4.078-8.227,8.091-12.212,12.259c-2.867,3-7.193,1.521-7.841-1.858C0.093,39.037,0.035,38.998,0,38.956V37.451z
	 M4.629,36.357c-0.872,0.017-1.604,0.745-1.608,1.602c-0.006,0.872,0.797,1.663,1.669,1.645c0.863-0.02,1.586-0.755,1.589-1.621
	C6.283,37.061,5.55,36.339,4.629,36.357"/>
</svg>
