<?xml version="1.0" encoding="utf-8"?>
<!-- Generator: Adobe Illustrator 18.1.0, SVG Export Plug-In . SVG Version: 6.00 Build 0)  -->
<svg version="1.1" id="Layer_1" xmlns="http://www.w3.org/2000/svg" xmlns:xlink="http://www.w3.org/1999/xlink" x="0px" y="0px"
	 viewBox="-332 109.3 26 36" enable-background="new -332 109.3 26 36" xml:space="preserve">
<path fill="#FFE13A" d="M-322,142c0,1.8-1.5,3.3-3.3,3.3h-3.5c-1.8,0-3.3-1.5-3.3-3.3v-29.5c0-1.8,1.5-3.3,3.3-3.3h3.5
	c1.8,0,3.3,1.5,3.3,3.3V142z"/>
<path fill="#FFE13A" d="M-306,142c0,1.8-1.5,3.3-3.3,3.3h-3.5c-1.8,0-3.3-1.5-3.3-3.3v-29.5c0-1.8,1.5-3.3,3.3-3.3h3.5
	c1.8,0,3.3,1.5,3.3,3.3L-306,142L-306,142z"/>
</svg>
