<?xml version="1.0" encoding="utf-8"?>
<!-- Generator: Adobe Illustrator 16.0.0, SVG Export Plug-In . SVG Version: 6.00 Build 0)  -->
<!DOCTYPE svg PUBLIC "-//W3C//DTD SVG 1.1//EN" "http://www.w3.org/Graphics/SVG/1.1/DTD/svg11.dtd">
<svg version="1.1" id="Layer_1" xmlns="http://www.w3.org/2000/svg" xmlns:xlink="http://www.w3.org/1999/xlink" x="0px" y="0px"
	 width="46.804px" height="35.778px" viewBox="0 0 46.804 35.778" enable-background="new 0 0 46.804 35.778" xml:space="preserve">
<path d="M42.487,35.409c0,0-5.338-0.956-7.278-2.296c-3.165,0.425-5.751,0.215-7.888-0.256c-2.915-0.643-5.248-1.736-7.135-3.345
	c-0.731-0.625-1.328-1.288-1.812-2.02c-0.091-0.007-0.182-0.015-0.272-0.022c-0.325-0.029-0.701-0.023-1.025-0.07
	c-0.421-0.061-0.933-0.136-1.303-0.199c0,0-4.146,3.123-8.806,3.019l-0.564,0.003L3.67,30.221l1.383-1.558
	c1.162-1.304,2.203-2.494,2.831-4.101c-0.314-0.18-0.728-0.39-1.05-0.576c-1.63-0.941-3.034-2.103-4.171-3.448
	c-0.505-0.599-0.903-1.263-1.287-1.905l-0.179-0.298c-0.699-1.16-0.958-2.443-1.134-3.656c-0.159-1.105,0.006-2.13,0.207-3.073
	c0.252-1.179,0.787-2.329,1.686-3.62c1.006-1.447,2.346-2.716,4.1-3.882c2.339-1.557,5.007-2.655,8.153-3.357
	c3.006-0.671,6.11-0.892,9.229-0.654c2.641,0.201,5.134,0.707,7.41,1.503c2.148,0.752,3.977,1.676,5.59,2.826
	c1.235,0.881,2.168,1.716,2.937,2.63c0.562,0.67,1.014,1.421,1.413,2.084c0.579,0.964,0.95,2.034,1.102,3.182l0.041,0.29
	c0.064,0.446,0.13,0.908,0.105,1.396c-0.04,0.77-0.138,1.469-0.296,2.12c0.259,0.151,0.511,0.307,0.751,0.468
	c1.241,0.825,2.194,1.727,2.912,2.758c0.642,0.924,1.026,1.752,1.208,2.603c0.145,0.678,0.263,1.415,0.146,2.218
	c-0.126,0.869-0.312,1.789-0.819,2.629l-0.123,0.204c-0.271,0.456-0.554,0.927-0.918,1.358c-0.808,0.955-1.804,1.781-2.961,2.449
	l-0.501,0.285c0.684,1.053,1.364,1.872,2.109,2.707c0,0,1.365,1.655,1.316,1.909S42.487,35.409,42.487,35.409 M35.728,30.844
	c0.205,0.049,3.153,2.102,4.782,2.322c0.14,0.02-2.399-2.946-2.024-3.387c0.188-0.219,0.433-0.321,0.63-0.404l0.115-0.05
	c0.799-0.378,1.669-0.851,2.378-1.376c0.921-0.682,2.252-1.637,2.384-3.147c0.049-0.553,0.144-1.522,0.073-1.946
	c-0.107-0.653-0.313-1.228-0.595-1.772c-0.586-1.14-1.907-1.918-1.907-1.918c-0.214-0.166-0.549-0.389-0.813-0.543
	c-0.695,1.263-1.65,2.464-3.008,3.621c-2.67,2.276-5.98,3.827-10.117,4.739c-1.863,0.41-3.581,0.617-5.488,0.654
	c0.867,0.789,1.558,1.458,2.462,1.883c1.614,0.756,3.373,1.228,5.378,1.44c1.298,0.138,2.521,0.199,3.7,0.09
	C33.994,31.021,35.522,30.795,35.728,30.844 M21.073,2.765c-0.856,0-1.73,0.041-2.596,0.121c-2.906,0.268-5.497,0.923-7.917,2.002
	C9.272,5.463,8.123,6.141,7.142,6.905C5.834,7.923,4.87,9,4.195,10.196c-0.476,0.843-0.783,1.71-0.938,2.649
	c-0.111,0.672-0.09,1.388,0.066,2.189c0.188,0.96,0.553,1.855,1.148,2.821c0.533,0.862,1.262,1.676,2.225,2.487
	c0.973,0.821,1.531,1.254,2.769,1.842c0.191,0.09,1.631,0.702,1.691,1.017c0.061,0.313-2.248,3.86-2.886,5.021
	c1.689-0.442,3.721-1.321,4.984-2.358c0.292-0.24,2.063-1.611,2.84-1.465c0.667,0.125,1.386,0.225,2.197,0.305
	c0.29,0.021,1.091,0.083,1.203,0.09c1.449,0.079,2.956,0.043,4.412-0.112c2.924-0.312,5.49-1.001,7.848-2.104
	c1.621-0.76,2.975-1.654,4.141-2.736c0.895-0.829,1.582-1.716,2.104-2.712c0.127-0.242,0.237-0.488,0.335-0.736
	c0.338-0.961,0.393-1.308,0.436-1.586c0.17-1.072,0.062-2.144-0.312-3.233c-0.303-0.881-0.75-1.701-1.366-2.506
	c-0.841-1.101-1.954-2.082-3.401-2.999C32.06,5.035,30.25,4.261,28.16,3.7C25.84,3.08,23.456,2.765,21.073,2.765"/>
</svg>
