<?xml version="1.0" encoding="utf-8"?>
<!-- Generator: Adobe Illustrator 16.0.0, SVG Export Plug-In . SVG Version: 6.00 Build 0)  -->
<!DOCTYPE svg PUBLIC "-//W3C//DTD SVG 1.1//EN" "http://www.w3.org/Graphics/SVG/1.1/DTD/svg11.dtd">
<svg version="1.1" id="Layer_1" xmlns="http://www.w3.org/2000/svg" xmlns:xlink="http://www.w3.org/1999/xlink" x="0px" y="0px"
	 width="60.234px" height="60.233px" viewBox="0 0 60.234 60.233" enable-background="new 0 0 60.234 60.233" xml:space="preserve">
<path fill="#585555" d="M48.821,3.416c4.409,0,7.997,3.587,7.997,7.997v37.408c0,4.408-3.588,7.996-7.997,7.996H11.413
	c-4.41,0-7.997-3.588-7.997-7.996V11.413c0-4.41,3.587-7.997,7.997-7.997H48.821 M48.821,0H11.413C5.11,0,0,5.11,0,11.413v37.408
	c0,6.303,5.11,11.412,11.413,11.412h37.408c6.303,0,11.413-5.109,11.413-11.412V11.413C60.234,5.11,55.124,0,48.821,0"/>
<path fill="#585555" d="M22.741,41.784c-0.072,0-0.145-0.004-0.217-0.012l-3.052-0.35c-0.504-0.059-0.957-0.31-1.274-0.709
	c-0.317-0.398-0.46-0.896-0.402-1.401l0.292-2.556c0.013-0.111-0.106-0.322-0.208-0.369l-0.064-0.032l-1.337-0.742
	c-0.021-0.014-0.087-0.04-0.187-0.04c-0.116,0-0.201,0.034-0.23,0.059l-2.015,1.601c-0.334,0.267-0.755,0.412-1.184,0.412
	c-0.586,0-1.13-0.263-1.493-0.72l-1.911-2.404C9.143,34.124,9,33.626,9.058,33.118c0.058-0.506,0.309-0.959,0.707-1.275l2.014-1.601
	c0.087-0.069,0.151-0.299,0.112-0.404l-0.025-0.075L11.455,28.3c-0.023-0.11-0.201-0.273-0.313-0.286l-2.556-0.293
	c-1.044-0.119-1.797-1.066-1.677-2.11l0.349-3.052c0.11-0.963,0.924-1.689,1.894-1.689c0.072,0,0.145,0.004,0.216,0.012l2.556,0.293
	c0.003,0,0.007,0.001,0.012,0.001c0.133,0,0.317-0.12,0.358-0.209l0.032-0.064l0.742-1.335c0.061-0.093,0.052-0.331-0.018-0.418
	l-1.601-2.016c-0.316-0.398-0.459-0.896-0.401-1.402c0.058-0.507,0.31-0.96,0.707-1.276l2.405-1.909
	c0.335-0.266,0.755-0.413,1.184-0.413c0.586,0,1.13,0.262,1.494,0.719l1.602,2.016c0.039,0.049,0.177,0.121,0.322,0.121
	c0.038,0,0.066-0.005,0.08-0.01l0.076-0.025l1.462-0.413c0.111-0.022,0.274-0.2,0.286-0.312l0.293-2.556
	c0.11-0.963,0.924-1.689,1.893-1.689c0.072,0,0.145,0.004,0.217,0.012l3.052,0.35c0.505,0.058,0.958,0.309,1.275,0.708
	c0.317,0.399,0.46,0.896,0.402,1.402l-0.293,2.556c-0.012,0.112,0.106,0.322,0.208,0.369l0.064,0.032l1.335,0.741
	c0.021,0.014,0.088,0.04,0.188,0.04c0.116,0,0.201-0.034,0.231-0.058l2.015-1.6c0.335-0.266,0.755-0.413,1.185-0.413
	c0.586,0,1.131,0.263,1.493,0.72l1.909,2.403c0.654,0.822,0.518,2.024-0.307,2.678l-2.014,1.601
	c-0.087,0.069-0.15,0.299-0.111,0.403l0.024,0.076l0.413,1.462c0.023,0.11,0.201,0.274,0.312,0.286l2.557,0.293
	c1.044,0.119,1.796,1.066,1.677,2.11l-0.349,3.052c-0.111,0.963-0.926,1.689-1.895,1.689c-0.072,0-0.145-0.004-0.217-0.012
	l-2.556-0.293c-0.002,0-0.007,0-0.013,0c-0.131,0-0.315,0.119-0.356,0.209l-0.032,0.063l-0.742,1.337
	c-0.062,0.093-0.052,0.331,0.018,0.418l1.6,2.015c0.654,0.822,0.516,2.023-0.306,2.678l-2.403,1.91
	c-0.335,0.267-0.756,0.412-1.185,0.412c-0.586,0-1.13-0.262-1.493-0.719L27.154,36.9c-0.04-0.05-0.178-0.122-0.324-0.122
	c-0.038,0-0.066,0.006-0.079,0.012l-0.075,0.023l-1.463,0.414c-0.11,0.023-0.273,0.201-0.286,0.312l-0.292,2.555
	C24.524,41.059,23.71,41.784,22.741,41.784 M18.712,34.673c0.831,0.402,1.374,1.384,1.269,2.302l-0.292,2.555l3.049,0.349
	l0.296-2.555c0.104-0.917,0.856-1.75,1.756-1.954l1.333-0.38c0.221-0.076,0.459-0.117,0.707-0.117c0.707,0,1.403,0.323,1.816,0.842
	l1.602,2.017l2.402-1.911l-1.6-2.016c-0.575-0.723-0.63-1.84-0.136-2.62l0.67-1.214c0.366-0.758,1.212-1.283,2.071-1.283
	c0.078,0,0.154,0.004,0.229,0.013l2.556,0.292l0.35-3.052l-2.557-0.292c-0.916-0.105-1.75-0.857-1.953-1.757l-0.379-1.333
	c-0.306-0.871,0.002-1.948,0.725-2.523l2.014-1.601l-1.908-2.404l-2.017,1.601c-0.383,0.304-0.886,0.471-1.416,0.471
	c-0.437,0-0.863-0.119-1.205-0.335l-1.213-0.669c-0.831-0.402-1.375-1.383-1.27-2.301l0.292-2.556l-3.052-0.349l-0.292,2.556
	c-0.105,0.917-0.857,1.75-1.757,1.954l-1.332,0.378c-0.222,0.078-0.46,0.117-0.709,0.117c-0.706,0-1.402-0.322-1.814-0.842
	l-1.602-2.015l-2.405,1.91l1.602,2.015c0.574,0.724,0.63,1.842,0.136,2.622l-0.67,1.213c-0.367,0.757-1.213,1.282-2.073,1.282
	c-0.076,0-0.153-0.004-0.228-0.013l-2.556-0.292l-0.35,3.052l2.556,0.292c0.918,0.105,1.751,0.857,1.955,1.758l0.378,1.334
	c0.304,0.871-0.003,1.948-0.726,2.522l-2.014,1.601l1.911,2.405l2.014-1.601c0.383-0.305,0.886-0.473,1.416-0.473
	c0.437,0,0.863,0.119,1.205,0.336L18.712,34.673z M22.801,31.269c-0.271,0-0.545-0.02-0.815-0.061
	c-2.765-0.418-4.767-2.929-4.559-5.718c0.208-2.798,2.564-4.989,5.363-4.989c0.205,0,0.413,0.012,0.617,0.035
	c2.95,0.338,5.075,3.012,4.738,5.962C27.833,29.217,25.536,31.269,22.801,31.269 M22.791,22.406c-1.807,0-3.328,1.416-3.463,3.224
	c-0.134,1.801,1.159,3.423,2.944,3.693c0.176,0.026,0.354,0.04,0.53,0.04c1.766,0,3.249-1.326,3.45-3.083
	c0.218-1.905-1.155-3.633-3.061-3.851C23.058,22.415,22.923,22.406,22.791,22.406"/>
<path fill="#585555" d="M43.381,35.924c-0.087,0-0.174,0.003-0.26,0.01c-1.828,0.142-3.199,1.744-3.058,3.571
	c0.134,1.719,1.589,3.066,3.312,3.066c0.086,0,0.174-0.004,0.26-0.011c1.827-0.141,3.199-1.743,3.057-3.571
	C46.558,37.271,45.104,35.924,43.381,35.924 M45.034,40.665c-0.379,0.443-0.906,0.711-1.486,0.756
	c-0.057,0.005-0.115,0.007-0.172,0.007c-1.131,0-2.084-0.884-2.172-2.012c-0.092-1.198,0.808-2.249,2.006-2.343
	c0.057-0.004,0.115-0.006,0.172-0.006c1.129,0,2.083,0.883,2.171,2.012C45.597,39.659,45.413,40.222,45.034,40.665"/>
<path fill="#585555" d="M53.104,37.897c-0.064-0.828-0.794-1.468-1.638-1.402l-0.873,0.067c-0.021,0.002-0.043,0.003-0.065,0.003
	c-0.312,0-0.55-0.158-0.582-0.226c-0.144-0.349-0.244-1.15-0.141-1.347l0.562-0.657c0.547-0.64,0.471-1.604-0.166-2.15l-0.899-0.77
	c-0.276-0.236-0.627-0.366-0.991-0.366c-0.447,0-0.87,0.194-1.159,0.531l-0.569,0.666c-0.17,0.199-0.42,0.305-0.567,0.305
	c-0.024,0-0.037-0.003-0.037-0.003c-0.351-0.147-0.995-0.646-1.063-0.856l-0.067-0.862c-0.063-0.828-0.795-1.468-1.638-1.403
	l-1.182,0.092c-0.838,0.065-1.467,0.8-1.402,1.638l0.067,0.873c0.026,0.326-0.143,0.61-0.223,0.648
	c-0.157,0.064-0.636,0.182-1.03,0.182c-0.213,0-0.299-0.033-0.316-0.041l-0.658-0.563c-0.275-0.235-0.627-0.365-0.99-0.365
	c-0.448,0-0.87,0.194-1.16,0.532l-0.77,0.9c-0.264,0.309-0.393,0.703-0.36,1.109s0.22,0.775,0.528,1.04l0.666,0.569
	c0.253,0.217,0.326,0.527,0.301,0.604c-0.146,0.35-0.645,0.995-0.855,1.062l-0.863,0.068c-0.838,0.064-1.467,0.799-1.402,1.637
	l0.091,1.184c0.065,0.828,0.794,1.467,1.64,1.402l0.873-0.068c0.021-0.002,0.043-0.002,0.064-0.002c0.314,0,0.55,0.158,0.581,0.225
	c0.144,0.348,0.245,1.149,0.144,1.346l-0.564,0.66c-0.547,0.638-0.473,1.603,0.166,2.149l0.9,0.771
	c0.274,0.235,0.627,0.365,0.989,0.365c0.447,0,0.87-0.193,1.159-0.531l0.571-0.668c0.169-0.196,0.418-0.304,0.565-0.304
	c0.025,0,0.037,0.005,0.037,0.005c0.352,0.146,0.995,0.645,1.064,0.856l0.066,0.86c0.062,0.789,0.729,1.408,1.521,1.408
	c0.039,0,0.077-0.002,0.118-0.006l1.181-0.092c0.405-0.031,0.774-0.219,1.04-0.529c0.266-0.31,0.395-0.703,0.361-1.108l-0.066-0.872
	c-0.025-0.325,0.143-0.609,0.225-0.647c0.157-0.065,0.638-0.183,1.03-0.183c0.211,0,0.298,0.033,0.315,0.041l0.658,0.564
	c0.274,0.234,0.627,0.364,0.99,0.364c0.447,0,0.869-0.194,1.159-0.532l0.771-0.9c0.545-0.639,0.471-1.604-0.168-2.15l-0.664-0.57
	c-0.254-0.215-0.326-0.524-0.301-0.602c0.146-0.352,0.645-0.995,0.855-1.064l0.861-0.066c0.404-0.031,0.773-0.221,1.039-0.529
	c0.266-0.31,0.395-0.703,0.363-1.109L53.104,37.897z M51.963,39.444c-0.066,0.078-0.158,0.125-0.258,0.133l-0.873,0.068
	c-1.025,0.079-1.805,1.744-1.812,1.76c-0.244,0.584,0.019,1.406,0.612,1.914l0.665,0.57c0.157,0.134,0.176,0.381,0.042,0.538
	l-0.77,0.899c-0.072,0.084-0.179,0.133-0.291,0.133c-0.064,0-0.16-0.016-0.246-0.09l-0.668-0.571
	c-0.242-0.207-0.586-0.308-1.05-0.308c-0.53,0-1.153,0.139-1.469,0.27c-0.589,0.244-0.987,1.014-0.927,1.791l0.068,0.873
	c0.008,0.1-0.025,0.197-0.092,0.275s-0.158,0.125-0.259,0.133l-1.183,0.093c-0.207,0.019-0.393-0.144-0.408-0.351l-0.068-0.873
	c-0.08-1.027-1.744-1.805-1.761-1.812c-0.146-0.062-0.308-0.092-0.479-0.092c-0.506,0-1.068,0.276-1.435,0.704l-0.57,0.666
	c-0.071,0.084-0.178,0.133-0.291,0.133c-0.063,0-0.159-0.016-0.245-0.091l-0.9-0.771c-0.157-0.134-0.176-0.38-0.043-0.538
	l0.572-0.666c0.602-0.703,0.152-2.244,0.039-2.519c-0.228-0.55-0.9-0.933-1.639-0.933c-0.051,0-0.102,0.002-0.152,0.006L35.2,40.858
	c-0.209,0.018-0.393-0.144-0.408-0.351L34.7,39.325c-0.017-0.205,0.144-0.394,0.35-0.41l0.875-0.066
	c1.027-0.08,1.804-1.745,1.811-1.761c0.244-0.584-0.019-1.407-0.613-1.914l-0.666-0.57c-0.076-0.065-0.123-0.157-0.131-0.26
	s0.024-0.201,0.09-0.277l0.77-0.899c0.072-0.084,0.178-0.133,0.291-0.133c0.064,0,0.159,0.016,0.247,0.09l0.666,0.57
	c0.243,0.209,0.587,0.31,1.052,0.31c0.533,0,1.155-0.14,1.469-0.269c0.588-0.246,0.985-1.016,0.926-1.793l-0.068-0.873
	c-0.016-0.206,0.145-0.394,0.35-0.41l1.183-0.092c0.212-0.015,0.393,0.144,0.409,0.351l0.067,0.873
	c0.031,0.396,0.292,0.789,0.798,1.203c0.354,0.289,0.748,0.518,0.963,0.608c0.146,0.062,0.308,0.093,0.479,0.093
	c0.505,0,1.069-0.277,1.435-0.705l0.57-0.666c0.072-0.084,0.178-0.131,0.291-0.131c0.064,0,0.159,0.014,0.247,0.09l0.899,0.77
	c0.156,0.135,0.176,0.381,0.041,0.538l-0.569,0.665c-0.603,0.706-0.153,2.247-0.039,2.521c0.228,0.547,0.901,0.93,1.638,0.93
	c0.051,0,0.104-0.002,0.154-0.006l0.872-0.066c0.208-0.018,0.394,0.143,0.409,0.35l0.092,1.182
	C52.063,39.269,52.032,39.366,51.963,39.444"/>
</svg>
