<?xml version="1.0" encoding="utf-8"?>
<!DOCTYPE svg PUBLIC "-//W3C//DTD SVG 1.1//EN" "http://www.w3.org/Graphics/SVG/1.1/DTD/svg11.dtd">
<svg version="1.1" id="Layer_1" xmlns="http://www.w3.org/2000/svg" xmlns:xlink="http://www.w3.org/1999/xlink" x="0px" y="0px"
	 width="9.234px" height="14.81px" viewBox="0 0 9.234 14.81" enable-background="new 0 0 9.234 14.81" xml:space="preserve">
<path fill="#FFFFFF" d="M4.704,9.962c1.185,0,2.152-1.031,2.201-2.109h-0.01V2.204C6.895,0.987,5.896,0,4.679,0
	S2.462,0.987,2.462,2.204v5.649h0.04C2.552,8.931,3.518,9.962,4.704,9.962"/>
<path fill="#FFFFFF" d="M8.634,6.149c-0.336,0-0.601,0.273-0.601,0.608v1.035c0,1.878-1.523,3.407-3.4,3.407
	c-1.878,0-3.402-1.528-3.402-3.407V6.757c0-0.335-0.279-0.608-0.616-0.608C0.28,6.149,0,6.422,0,6.757v1.035
	c0,2.403,1.847,4.384,4.186,4.603v1.183H2.19c-0.337,0-0.608,0.279-0.608,0.615S1.853,14.81,2.19,14.81h5.027
	c0.336,0,0.607-0.28,0.607-0.616s-0.271-0.615-0.607-0.615H5.264v-1.209c2.277-0.315,3.971-2.247,3.971-4.577V6.757
	C9.234,6.422,8.97,6.149,8.634,6.149"/>
</svg>
