<?xml version="1.0" encoding="utf-8"?>
<!-- Generator: Adobe Illustrator 16.0.0, SVG Export Plug-In . SVG Version: 6.00 Build 0)  -->
<!DOCTYPE svg PUBLIC "-//W3C//DTD SVG 1.1//EN" "http://www.w3.org/Graphics/SVG/1.1/DTD/svg11.dtd">
<svg version="1.1" id="Layer_1" xmlns="http://www.w3.org/2000/svg" xmlns:xlink="http://www.w3.org/1999/xlink" x="0px" y="0px"
	 width="54.896px" height="37.58px" viewBox="0 0 54.896 37.58" enable-background="new 0 0 54.896 37.58" xml:space="preserve">
<path fill="#FFFFFF" d="M0,35.442c0.21,0.176,0.356,0.346,0.541,0.444c0.93,0.5,1.868,0.983,2.808,1.468
	c0.812,0.418,1.558,0.215,2.256-0.279c1.616-1.144,2.474-2.754,2.737-4.672c0.326-2.373,0.021-4.732-0.286-7.084
	C8.01,24.963,8.049,24.73,8.327,24.46c1.039-1.01,1.154-2.689,0.115-3.688c-0.62-0.595-0.678-1.152-0.523-1.868
	c0.042-0.196,0.068-0.396,0.096-0.594c0.384-2.81,1.718-4.915,4.427-6.021c2.239-0.914,4.454-1.888,6.707-2.767
	c2.69-1.05,5.407-2.037,8.122-3.031c0.74-0.272,1.315-0.104,1.674,0.394c0.57,0.793,0.19,1.695-0.854,2.09
	c-3.815,1.442-7.63,2.888-11.439,4.344c-0.984,0.376-1.951,0.794-3.006,1.225c0.268,0.102,0.447,0.178,0.633,0.239
	c4.284,1.428,8.571,2.848,12.851,4.29c0.585,0.198,1.116,0.182,1.696-0.013c7.096-2.378,14.197-4.742,21.296-7.109
	c1.312-0.438,2.63-0.863,3.936-1.32c0.856-0.299,1.114-1.203,0.509-1.764c-0.203-0.188-0.496-0.301-0.768-0.391
	C45.419,5.674,37.04,2.872,28.651,0.101c-0.431-0.141-0.988-0.13-1.421,0.012C22.209,1.755,17.2,3.435,12.189,5.105
	C8.819,6.229,5.45,7.354,2.081,8.48C1.347,8.726,1.043,9.046,1.032,9.575c-0.01,0.54,0.311,0.888,1.063,1.142
	c0.396,0.134,0.796,0.26,1.193,0.393c1.443,0.484,2.886,0.969,4.338,1.456c-1.759,3.218-1.755,3.219-2.36,7.158
	c-0.026,0.179-0.196,0.378-0.355,0.488c-1.695,1.185-1.694,3.519,0.032,4.637c0.285,0.184,0.33,0.352,0.29,0.662
	c-0.463,3.584-1.977,6.643-4.547,9.18C0.456,34.917,0.249,35.167,0,35.442 M11.138,16.742c-0.103,0.933-0.189,1.776-0.294,2.618
	c-0.04,0.328,0.084,0.521,0.346,0.726c1.381,1.081,1.868,2.553,1.561,4.226c-0.14,0.758-0.598,1.455-0.969,2.314
	c0.539,0.402,1.14,0.938,1.819,1.343c2.697,1.606,5.699,2.298,8.762,2.711c4.588,0.619,9.169,0.533,13.71-0.429
	c2.417-0.51,4.77-1.227,6.833-2.648c1.182-0.814,2.229-1.783,2.258-3.355c0.043-2.463,0.015-4.925,0.015-7.387
	c0-0.051-0.028-0.102-0.058-0.198c-0.211,0.057-0.419,0.102-0.619,0.169c-5.061,1.686-10.123,3.368-15.179,5.071
	c-0.922,0.311-1.804,0.321-2.724,0.004c-2.082-0.718-4.177-1.404-6.267-2.101C17.328,18.803,14.324,17.803,11.138,16.742"/>
<path d="M0.001,35.442c0.248-0.274,0.455-0.524,0.686-0.752c2.571-2.537,4.084-5.596,4.546-9.18c0.04-0.311-0.005-0.479-0.289-0.662
	c-1.727-1.117-1.727-3.451-0.032-4.637c0.159-0.111,0.328-0.309,0.356-0.488c0.604-3.94,0.601-3.94,2.359-7.158
	c-1.451-0.487-2.895-0.972-4.339-1.456c-0.396-0.133-0.796-0.259-1.192-0.393c-0.752-0.254-1.073-0.602-1.063-1.142
	c0.011-0.529,0.314-0.849,1.049-1.094C5.45,7.355,8.819,6.23,12.189,5.106c5.011-1.671,10.019-3.351,15.04-4.993
	c0.434-0.142,0.992-0.154,1.422-0.012c8.389,2.771,16.768,5.573,25.146,8.375c0.271,0.091,0.562,0.204,0.766,0.392
	c0.607,0.561,0.348,1.465-0.507,1.764c-1.306,0.457-2.624,0.882-3.937,1.32c-7.1,2.367-14.2,4.731-21.297,7.109
	c-0.58,0.195-1.109,0.21-1.695,0.013c-4.279-1.442-8.566-2.862-12.851-4.29c-0.185-0.062-0.366-0.137-0.634-0.239
	c1.055-0.431,2.023-0.849,3.007-1.225c3.811-1.456,7.624-2.902,11.439-4.344c1.045-0.395,1.425-1.297,0.854-2.09
	c-0.357-0.498-0.932-0.666-1.673-0.395c-2.714,0.994-5.431,1.981-8.123,3.032c-2.252,0.879-4.467,1.853-6.706,2.767
	c-2.71,1.106-4.044,3.21-4.428,6.021c-0.027,0.198-0.052,0.398-0.094,0.594c-0.156,0.716-0.098,1.273,0.521,1.868
	c1.039,0.998,0.925,2.678-0.115,3.688c-0.277,0.271-0.316,0.503-0.27,0.859c0.307,2.352,0.611,4.711,0.286,7.082
	c-0.265,1.92-1.122,3.53-2.738,4.674c-0.698,0.494-1.443,0.697-2.256,0.278c-0.939-0.483-1.877-0.968-2.807-1.467
	C0.356,35.788,0.21,35.618,0.001,35.442"/>
<path d="M11.138,16.742c3.187,1.061,6.19,2.061,9.194,3.063c2.09,0.696,4.185,1.383,6.267,2.101c0.92,0.317,1.802,0.307,2.724-0.004
	c5.056-1.703,10.118-3.385,15.179-5.071c0.2-0.067,0.408-0.112,0.619-0.169c0.029,0.096,0.058,0.147,0.058,0.198
	c0,2.462,0.028,4.924-0.015,7.387c-0.028,1.572-1.076,2.541-2.258,3.355c-2.063,1.422-4.416,2.139-6.833,2.648
	c-4.541,0.962-9.122,1.048-13.71,0.429c-3.062-0.413-6.064-1.104-8.762-2.711c-0.68-0.405-1.28-0.94-1.819-1.343
	c0.371-0.859,0.829-1.557,0.969-2.314c0.308-1.673-0.18-3.145-1.561-4.226c-0.262-0.205-0.386-0.398-0.346-0.726
	C10.948,18.518,11.035,17.675,11.138,16.742"/>
</svg>
