<?xml version="1.0" encoding="utf-8"?>
<!-- Generator: Adobe Illustrator 18.1.1, SVG Export Plug-In . SVG Version: 6.00 Build 0)  -->
<svg version="1.1" id="Layer_1" xmlns="http://www.w3.org/2000/svg" xmlns:xlink="http://www.w3.org/1999/xlink" x="0px" y="0px"
	 viewBox="0 0 31.6 32" enable-background="new 0 0 31.6 32" xml:space="preserve">
<path fill="#FFFFFF" d="M30.5,13.4L30.5,13.4L17.9,0.8c-1.3-1.3-3.2-1-4.6,0.4l-0.7,0.7c-1.3,1.3-1.6,3.2-0.3,4.5l5.8,5.9H2.1
	C0.7,12.3,0,13,0,14.4v2.9c0,1.4,0.9,3,2.3,3h16.1l-5.8,5.6c-1.3,1.3-1.5,3-0.1,4.4l0.7,0.6c1.3,1.3,3.6,1.7,5,0.3l12.6-12.6
	C32,17.2,31.8,14.8,30.5,13.4z"/>
</svg>
