<?xml version="1.0" encoding="utf-8"?>
<!-- Generator: Adobe Illustrator 16.0.0, SVG Export Plug-In . SVG Version: 6.00 Build 0)  -->
<!DOCTYPE svg PUBLIC "-//W3C//DTD SVG 1.1//EN" "http://www.w3.org/Graphics/SVG/1.1/DTD/svg11.dtd">
<svg version="1.1" id="Layer_1" xmlns="http://www.w3.org/2000/svg" xmlns:xlink="http://www.w3.org/1999/xlink" x="0px" y="0px"
	 width="50.708px" height="49.3px" viewBox="0 0 50.708 49.3" enable-background="new 0 0 50.708 49.3" xml:space="preserve">
<path d="M34.55,36.831c-0.881-0.882-1.871-1.056-2.752-0.174l-3.638,3.814v-9.378c0-0.936,0.021-2.105-1.26-2.105H24.64
	c-1.409,0-1.479,1.17-1.479,2.105v9.512l-4.04-3.813c-0.881-0.883-2.16-0.978-3.041-0.097l-0.486,0.431
	c-0.882,0.882-1.154,2.388-0.272,3.269l8.259,8.277c1.007,0.956,2.492,0.747,3.374-0.135l0.039-0.042
	c0.043-0.039,8.233-8.234,8.233-8.234c0.882-0.881,0.637-2.119-0.245-3L34.55,36.831z"/>
<path d="M8.798,26.989h9.297c0.935,0,2.065-0.345,2.065-1.279v-2.514c0-0.935-1.131-1.207-2.065-1.207H8.664l3.813-3.653
	c0.883-0.881,0.978-1.966,0.097-2.848l-0.431-0.39c-0.882-0.882-2.388-1.105-3.269-0.225l-8.277,8.288
	c-0.427,0.427-0.61,1.032-0.592,1.636C0.006,24.818,0,24.839,0,24.858c0,0.9,0.546,1.564,1.188,2.146l7.821,7.821
	c0.881,0.882,2.119,0.638,3-0.244l0.43-0.43c0.883-0.881,1.056-2.257,0.175-3.14L8.798,26.989z"/>
<path d="M15.967,12.435c0.881,0.881,2.272,1.055,3.153,0.173l4.04-3.814v10.021c0,0.934,0.479,1.176,1.248,1.176h1.699
	c0.935,0,2.053-0.289,2.053-1.224V8.659l3.638,3.814c1.648,1.648,3.226-0.334,3.226-0.334c0.882-0.883,1.374-2.119,0.223-3.27
	l-7.823-7.812c-0.742-0.742-1.496-1.075-2.102-1.057C24.488,0,23.71,0.53,23.115,1.184l-7.822,7.82
	c-0.882,0.882-0.638,2.119,0.244,3L15.967,12.435z"/>
<path d="M49.976,23.172L49.976,23.172l-8.276-8.277c-0.881-0.881-2.119-0.637-3,0.245l-0.431,0.429
	c-0.882,0.882-1.055,1.886-0.173,2.769l3.814,3.652H31.327c-0.935,0-1.167,0.896-1.167,1.83v1.892c0,0.934,0.332,1.278,1.266,1.278
	h10.618l-3.814,4.024c-0.882,0.882-0.977,2.151-0.096,3.034l0.43,0.481c0.883,0.882,2.389,1.153,3.27,0.271l8.277-8.261
	C50.992,25.658,50.857,24.053,49.976,23.172"/>
</svg>
