<?xml version="1.0" encoding="utf-8"?>
<!-- Generator: Adobe Illustrator 16.0.0, SVG Export Plug-In . SVG Version: 6.00 Build 0)  -->
<!DOCTYPE svg PUBLIC "-//W3C//DTD SVG 1.1//EN" "http://www.w3.org/Graphics/SVG/1.1/DTD/svg11.dtd">
<svg version="1.1" id="Layer_1" xmlns="http://www.w3.org/2000/svg" xmlns:xlink="http://www.w3.org/1999/xlink" x="0px" y="0px"
	 width="45.769px" height="47.482px" viewBox="0 0 45.769 47.482" enable-background="new 0 0 45.769 47.482" xml:space="preserve">
<path d="M44.388,36.234c-0.793-0.789-1.776-1.444-3.099-2.06c-2.194-1.022-4.524-1.596-6.514-2.022
	c-0.666-0.144-1.342-0.256-1.997-0.365c-0.146-0.025-0.291-0.049-0.438-0.074c-0.12-0.02-0.239-0.03-0.355-0.03
	c-0.811,0-1.443,0.498-1.574,1.24c-0.146,0.83,0.412,1.554,1.356,1.761c0.108,0.024,0.223,0.045,0.346,0.064
	c2.439,0.386,4.435,0.867,6.276,1.513c1.329,0.466,2.707,1.037,3.786,2.048c0.375,0.352,0.567,0.678,0.569,0.971
	c0.003,0.297-0.187,0.629-0.562,0.992c-0.017,0.017-0.034,0.031-0.053,0.047c-0.022,0.019-0.045,0.037-0.066,0.057
	c-1.038,0.927-2.325,1.468-3.448,1.875c-3.192,1.156-6.824,1.835-11.433,2.134c-1.504,0.099-3,0.147-4.446,0.147
	c-3.093,0-6.121-0.227-9.002-0.674c-2.177-0.338-5.021-0.879-7.707-2.068c-1.193-0.528-2.123-1.059-2.782-1.932
	c-0.352-0.467-0.234-0.765-0.072-0.994c0.264-0.373,0.573-0.699,0.898-0.943c1.695-1.271,3.698-1.855,5.604-2.346
	c0.839-0.215,1.716-0.381,2.562-0.541c0.519-0.1,1.056-0.201,1.585-0.314c0.467-0.1,0.818-0.255,1.072-0.473
	c0.53-0.455,0.643-1.141,0.291-1.792c-0.317-0.589-0.974-0.87-1.748-0.743c-2.842,0.466-4.977,0.974-6.922,1.646
	c-1.278,0.441-2.935,1.094-4.395,2.231c-0.735,0.571-1.747,1.502-2.042,2.964c-0.292,1.449,0.197,2.747,1.495,3.969
	c1.413,1.329,3.155,2.064,4.516,2.557c4.773,1.727,9.654,2.184,13.374,2.389c0.198,0.01,6.889,0.029,7.337,0.001
	c0.906-0.058,2.187-0.19,3.109-0.287c3.886-0.407,6.992-1.075,9.777-2.103c1.338-0.493,3.06-1.229,4.509-2.545
	c1-0.909,1.544-1.998,1.569-3.15C45.794,38.25,45.318,37.16,44.388,36.234"/>
<path d="M12.355,25.453c2.201,5.051,5.208,10.164,9.193,15.631c0.397,0.545,0.847,0.82,1.339,0.82c0.495,0,0.948-0.279,1.345-0.826
	c2.183-3.017,4.174-6.114,5.918-9.207c1.909-3.386,3.305-6.474,4.413-9.386c1.444-3.788,1.809-7.259,1.809-8.839
	s-0.413-3.704-0.597-4.257c-0.915-2.764-2.588-5.106-4.839-6.772c-2.262-1.673-4.99-2.577-7.891-2.616
	c-4.299-0.056-7.881,1.621-10.647,4.984C9.885,8.041,8.927,11.807,9.55,16.18C9.959,19.055,10.851,22.001,12.355,25.453
	 M12.272,13.9c-0.043-4.484,1.889-7.783,5.737-9.806c1.593-0.836,3.259-1.261,4.952-1.261c2.669,0,5.191,1.046,7.296,3.026
	c1.97,1.854,3.056,4.194,3.226,6.955c0.179,2.892-0.592,5.615-1.366,7.898c-1.271,3.734-3.062,7.452-5.641,11.7
	c-0.833,1.375-1.739,2.742-2.614,4.065c-0.332,0.502-0.676,1.019-1.012,1.534c-0.284-0.436-0.565-0.867-0.843-1.289
	c-0.972-1.484-1.891-2.889-2.781-4.344c-2.163-3.533-3.824-6.866-5.077-10.188C13.237,19.772,12.3,16.896,12.272,13.9"/>
<path d="M22.875,20.738h0.017c3.867,0,7.044-2.793,7.044-6.761c0-5.733-5.116-6.927-7.004-6.949c-3.78,0-7.088,2.962-7.09,6.855
	C15.839,17.767,18.994,20.738,22.875,20.738 M23.095,18.306c-2.374,0-4.301-1.951-4.301-4.05c0-1.613,1.242-4.13,3.958-4.13
	c2.714,0,4.271,1.771,4.231,4.035C26.937,16.743,25.34,18.306,23.095,18.306"/>
</svg>
