<?xml version="1.0" encoding="utf-8"?>
<!-- Generator: Adobe Illustrator 18.1.0, SVG Export Plug-In . SVG Version: 6.00 Build 0)  -->
<svg version="1.1" id="Layer_1" xmlns="http://www.w3.org/2000/svg" xmlns:xlink="http://www.w3.org/1999/xlink" x="0px" y="0px"
	 viewBox="-328 112.1 33.5 29.1" enable-background="new -328 112.1 33.5 29.1" xml:space="preserve">
<path fill="#FFFFFF" d="M-321.6,136.3c0,1.5-1.2,2.8-2.8,2.8h-0.8c-1.5,0-2.8-1.2-2.8-2.8v-20c0-1.5,1.2-2.8,2.8-2.8h0.8
	c1.5,0,2.8,1.2,2.8,2.8V136.3z"/>
<path fill="#FFFFFF" d="M-295.9,141.3c-0.4,0-0.7-0.1-1-0.3l-21.3-12c-0.6-0.4-1-1-1.1-1.8c0-0.7,0.4-1.4,1-1.8l21.3-13
	c0.6-0.4,1.1-0.4,1.8,0c0.7,0.4,0.7,1.1,0.7,1.8v25c0,0.7,0,1.4-0.7,1.8C-295.5,141.2-295.5,141.3-295.9,141.3"/>
</svg>
