<?xml version="1.0" encoding="utf-8"?>
<!-- Generator: Adobe Illustrator 16.0.0, SVG Export Plug-In . SVG Version: 6.00 Build 0)  -->
<!DOCTYPE svg PUBLIC "-//W3C//DTD SVG 1.1//EN" "http://www.w3.org/Graphics/SVG/1.1/DTD/svg11.dtd">
<svg version="1.1" id="Layer_1" xmlns="http://www.w3.org/2000/svg" xmlns:xlink="http://www.w3.org/1999/xlink" x="0px" y="0px"
	 width="51.921px" height="40.14px" viewBox="0 0 51.921 40.14" enable-background="new 0 0 51.921 40.14" xml:space="preserve">
<path d="M39.146,6.493c0.265,0,0.498-0.008,0.731,0.002c0.708,0.029,1.432-0.021,2.119,0.114c2.168,0.432,3.645,2.293,3.661,4.516
	c0.004,0.531,0,1.064,0,1.627c0.331,0,0.635,0.002,0.938,0c0.763-0.005,1.521,0.007,2.255,0.269
	c1.804,0.641,3.059,2.355,3.062,4.271c0.008,6.099,0.015,12.197-0.003,18.297c-0.007,2.547-2.116,4.56-4.727,4.552
	c-7.51-0.023-15.02-0.007-22.528-0.009c-2.498,0-4.995,0.016-7.492-0.015c-2.379-0.028-4.382-2.099-4.397-4.49
	c-0.003-0.577,0-1.153,0-1.762c-0.574,0-1.123-0.001-1.673,0.001c-1.007,0.004-1.921-0.292-2.719-0.896
	c-1.214-0.918-1.847-2.146-1.865-3.677c-0.007-0.628-0.001-1.258-0.001-1.923c-0.316,0-0.602,0.012-0.888-0.002
	c-0.681-0.03-1.378,0.013-2.037-0.128c-2.101-0.446-3.569-2.271-3.573-4.418c-0.013-6.09-0.014-12.18,0-18.271
	c0.006-2.539,2.068-4.551,4.609-4.551C14.591,0,24.562,0,34.535,0c2.568,0.001,4.61,2.037,4.611,4.6c0,0.535,0,1.069,0,1.604V6.493z
	 M47.182,36.881c0.908,0.004,1.485-0.657,1.483-1.491c-0.018-5.959-0.009-11.919-0.009-17.879c0-0.966-0.545-1.508-1.516-1.509
	c-1.734,0-28.386,0.036-29.578,0.011c-1.117-0.025-1.558,0.753-1.556,1.555c0.017,5.934,0.016,11.866,0.002,17.799
	c-0.003,0.914,0.617,1.52,1.515,1.516C22.458,36.859,42.229,36.86,47.182,36.881 M6.508,24.081v-0.273
	c-0.002-4.242-0.01-8.483,0.004-12.725c0.002-0.466,0.081-0.947,0.22-1.393c0.608-1.952,2.374-3.196,4.484-3.196
	c8.089-0.001,24.522-0.001,24.659-0.001c0-0.739,0.034-1.44-0.01-2.138c-0.04-0.612-0.646-1.095-1.278-1.095
	C24.614,3.26,4.439,3.269,4.329,3.291c-0.581,0.116-1.071,0.622-1.07,1.445c0.012,5.968,0.009,18.062,0.013,18.142
	c0.032,0.576,0.441,1.137,1.006,1.188C5.004,24.13,5.741,24.081,6.508,24.081 M41.975,12.752h0.423c0-0.516-0.023-0.989,0.006-1.459
	c0.053-0.864-0.527-1.575-1.559-1.562c-1.804,0.025-21.503,0.025-29.547,0.03c-0.018,0-0.035,0-0.053,0
	c-0.963,0.005-1.487,0.533-1.487,1.501c0.004,5.24,0.008,10.479,0.01,15.721c0.001,0.762-0.013,1.524-0.008,2.287
	c0.006,0.764,0.562,1.326,1.324,1.342c0.499,0.011,0.999,0.003,1.498,0c0.057,0,0.114-0.018,0.184-0.028
	c0-0.139-0.011-8.953,0.005-13.238c0.007-1.71,0.784-3.021,2.225-3.93c0.785-0.496,1.662-0.665,2.583-0.665"/>
</svg>
