<?xml version="1.0" encoding="utf-8"?>
<!-- Generator: Adobe Illustrator 18.1.0, SVG Export Plug-In . SVG Version: 6.00 Build 0)  -->
<svg version="1.1" id="Layer_1" xmlns="http://www.w3.org/2000/svg" xmlns:xlink="http://www.w3.org/1999/xlink" x="0px" y="0px"
	 viewBox="-322 104.1 45.2 45.2" enable-background="new -322 104.1 45.2 45.2" xml:space="preserve">
<path fill="#FFFFFF" d="M-278.1,114.3h-7.6c-0.7,0-1.3-0.6-1.3-1.3v-7.6c0-0.7-0.6-1.3-1.3-1.3h-4.4c-0.7,0-1.3,0.6-1.3,1.3V120
	c0,0.7,0.6,1.3,1.3,1.3h14.6c0.7,0,1.3-0.6,1.3-1.3v-4.4C-276.8,114.9-277.4,114.3-278.1,114.3"/>
<path fill="#FFFFFF" d="M-311.8,105.4v7.6c0,0.7-0.6,1.3-1.3,1.3h-7.6c-0.7,0-1.3,0.6-1.3,1.3v4.4c0,0.7,0.6,1.3,1.3,1.3h14.6
	c0.7,0,1.3-0.6,1.3-1.3v-14.6c0-0.7-0.6-1.3-1.3-1.3h-4.4C-311.3,104.1-311.8,104.7-311.8,105.4"/>
<path fill="#FFFFFF" d="M-320.7,139.1h7.6c0.7,0,1.3,0.6,1.3,1.3v7.6c0,0.7,0.6,1.3,1.3,1.3h4.4c0.7,0,1.3-0.6,1.3-1.3v-14.6
	c0-0.7-0.6-1.3-1.3-1.3h-14.6c-0.7,0-1.3,0.6-1.3,1.3v4.4C-322,138.5-321.4,139.1-320.7,139.1"/>
<path fill="#FFFFFF" d="M-287,148v-7.6c0-0.7,0.6-1.3,1.3-1.3h7.6c0.7,0,1.3-0.6,1.3-1.3v-4.4c0-0.7-0.6-1.3-1.3-1.3h-14.6
	c-0.7,0-1.3,0.6-1.3,1.3V148c0,0.7,0.6,1.3,1.3,1.3h4.4C-287.6,149.3-287,148.7-287,148"/>
</svg>
