<?xml version="1.0" encoding="utf-8"?>
<!-- Generator: Adobe Illustrator 16.0.0, SVG Export Plug-In . SVG Version: 6.00 Build 0)  -->
<!DOCTYPE svg PUBLIC "-//W3C//DTD SVG 1.1//EN" "http://www.w3.org/Graphics/SVG/1.1/DTD/svg11.dtd">
<svg version="1.1" id="Layer_1" xmlns="http://www.w3.org/2000/svg" xmlns:xlink="http://www.w3.org/1999/xlink" x="0px" y="0px"
	 width="60.234px" height="60.233px" viewBox="0 0 60.234 60.233" enable-background="new 0 0 60.234 60.233" xml:space="preserve">
<path fill="#585555" d="M48.82,3.416c4.41,0,7.998,3.587,7.998,7.997v37.408c0,4.408-3.588,7.996-7.998,7.996H11.413
	c-4.41,0-7.997-3.588-7.997-7.996V11.413c0-4.41,3.587-7.997,7.997-7.997H48.82 M48.82,0H11.413C5.11,0,0,5.11,0,11.413v37.408
	c0,6.303,5.11,11.412,11.413,11.412H48.82c6.304,0,11.414-5.109,11.414-11.412V11.413C60.234,5.11,55.124,0,48.82,0"/>
<path fill="#585555" d="M48.023,15.651h-35.69c-2.839,0-4.191,0.994-4.191,3.392v23.819c0,2.398,1.352,3.393,4.191,3.393h35.69
	c2.838,0,4.189-0.994,4.189-3.393V19.043C52.213,16.645,50.861,15.651,48.023,15.651 M49.494,42.77c0,0.23-0.187,0.416-0.417,0.416
	H11.278c-0.23,0-0.416-0.186-0.416-0.416V19.136c0-0.23,0.186-0.417,0.416-0.417h37.799c0.23,0,0.417,0.187,0.417,0.417V42.77z
	 M22.098,23.924c-0.205-0.638-0.616-0.925-1.274-0.925h-1.849c-0.658,0-1.069,0.287-1.274,0.925l-4.255,12.481
	c-0.267,0.781,0.103,1.295,0.925,1.295h1.356c0.658,0,1.069-0.308,1.254-0.945l0.534-1.852c0.049-0.17,0.204-0.287,0.381-0.287
	h3.986c0.177,0,0.332,0.117,0.381,0.287l0.534,1.852c0.206,0.638,0.616,0.945,1.274,0.945h1.356c0.822,0,1.193-0.514,0.925-1.295
	L22.098,23.924z M20.812,31.737h-1.842c-0.264,0-0.455-0.254-0.38-0.507l0.693-2.351c0.267-0.925,0.596-2.529,0.596-2.529h0.041
	c0,0,0.329,1.604,0.596,2.529l0.677,2.353C21.265,31.485,21.075,31.737,20.812,31.737 M33.875,28.788h-5.911
	c-0.843,0-1.527,0.684-1.527,1.527v0.032c0,0.843,0.683,1.526,1.527,1.526h5.911c0.842,0,1.526-0.683,1.526-1.527v-0.032
	C35.401,29.471,34.717,28.788,33.875,28.788 M45.599,34.616H41.33c-0.658,0-1.131,0.062-1.131,0.062v-0.041
	c0,0,0.493-0.432,1.131-1.337l5.239-7.444c0.329-0.453,0.453-0.864,0.453-1.419v-0.329c0-0.72-0.392-1.11-1.131-1.11h-8.44
	c-0.843,0-1.527,0.683-1.527,1.526v0.032c0,0.843,0.685,1.526,1.526,1.526h3.88c0.656,0,1.129-0.061,1.129-0.061v0.041
	c0,0-0.492,0.431-1.129,1.336l-5.221,7.403c-0.329,0.452-0.452,0.863-0.452,1.419v0.349c0,0.741,0.392,1.131,1.13,1.131h8.811
	c0.844,0,1.527-0.683,1.527-1.526v-0.031C47.125,35.3,46.441,34.616,45.599,34.616"/>
</svg>
