<?xml version="1.0" encoding="utf-8"?>
<!-- Generator: Adobe Illustrator 16.0.0, SVG Export Plug-In . SVG Version: 6.00 Build 0)  -->
<!DOCTYPE svg PUBLIC "-//W3C//DTD SVG 1.1//EN" "http://www.w3.org/Graphics/SVG/1.1/DTD/svg11.dtd">
<svg version="1.1" id="Layer_1" xmlns="http://www.w3.org/2000/svg" xmlns:xlink="http://www.w3.org/1999/xlink" x="0px" y="0px"
	 width="60.233px" height="60.233px" viewBox="0 0 60.233 60.233" enable-background="new 0 0 60.233 60.233" xml:space="preserve">
<path fill="#585555" d="M48.821,3.416c4.408,0,7.996,3.587,7.996,7.997v37.408c0,4.408-3.588,7.996-7.996,7.996H11.413
	c-4.41,0-7.997-3.588-7.997-7.996V11.413c0-4.41,3.587-7.997,7.997-7.997H48.821 M48.821,0H11.413C5.11,0,0,5.11,0,11.413v37.408
	c0,6.303,5.11,11.412,11.413,11.412h37.408c6.303,0,11.412-5.109,11.412-11.412V11.413C60.233,5.11,55.124,0,48.821,0"/>
<path fill="#565656" d="M41.798,23.488c-0.002,2.863-0.655,5.537-2.527,7.767c-0.93,1.106-2.023,2.078-3.078,3.075
	c-1.247,1.181-2.593,2.263-3.784,3.495c-1.507,1.559-2.385,3.459-2.582,5.645c-0.058,0.651-0.037,1.322-0.187,1.953
	c-0.458,1.937-2.22,3.342-4.16,3.397c-2.102,0.06-3.905-1.212-4.519-3.187c-0.327-1.05-1.066-1.52-1.947-1.24
	c-0.875,0.279-1.217,1.098-0.893,2.137c1.044,3.34,4.283,5.551,7.711,5.262c3.59-0.302,6.416-2.98,6.869-6.525
	c0.098-0.773,0.085-1.564,0.232-2.326c0.307-1.604,1.268-2.84,2.434-3.913c1.161-1.069,2.364-2.093,3.569-3.112
	c4.573-3.865,6.479-8.784,5.663-14.691c-1.061-7.671-8.732-12.858-16.283-11.098c-5.529,1.288-9.445,5.53-10.399,11.264
	c-0.16,0.961,0.354,1.748,1.231,1.883c0.87,0.134,1.588-0.472,1.717-1.449c0.759-5.766,6.379-9.913,12.09-8.92
	C38.193,13.814,41.819,18.153,41.798,23.488"/>
<path fill="#565656" d="M41.798,23.488c0.021-5.335-3.604-9.674-8.844-10.585c-5.71-0.992-11.331,3.155-12.09,8.921
	c-0.129,0.977-0.847,1.583-1.718,1.449c-0.876-0.135-1.39-0.922-1.23-1.883c0.953-5.734,4.87-9.976,10.399-11.264
	c7.551-1.76,15.223,3.427,16.282,11.098c0.817,5.907-1.089,10.826-5.662,14.691c-1.206,1.02-2.408,2.043-3.569,3.112
	c-1.166,1.073-2.127,2.31-2.434,3.913c-0.146,0.762-0.135,1.553-0.232,2.326c-0.453,3.546-3.279,6.224-6.869,6.525
	c-3.428,0.289-6.668-1.922-7.711-5.262c-0.325-1.04,0.017-1.857,0.892-2.136c0.882-0.28,1.621,0.19,1.947,1.239
	c0.614,1.975,2.418,3.246,4.52,3.187c1.94-0.056,3.702-1.461,4.16-3.397c0.149-0.631,0.128-1.302,0.187-1.953
	c0.196-2.186,1.075-4.086,2.581-5.645c1.192-1.232,2.537-2.314,3.785-3.495c1.055-0.997,2.148-1.969,3.078-3.075
	C41.142,29.025,41.796,26.351,41.798,23.488"/>
<path fill="#565656" d="M30.892,16.63c-0.11,0-0.222,0.003-0.332,0.008c-3.317,0.157-6.087,2.71-6.443,5.94
	c-0.097,0.872-0.092,1.789-0.087,2.675c0.002,0.337,0.003,0.674,0,1.011c-0.008,0.834,0.255,1.118,1.086,1.171
	c1.088,0.07,2.08,0.622,2.723,1.515c0.635,0.884,0.842,1.985,0.567,3.021c-0.412,1.553-1.768,2.603-3.455,2.676
	c-0.514,0.021-0.894,0.367-0.925,0.839c-0.03,0.448,0.283,0.849,0.727,0.931c0.077,0.015,0.166,0.021,0.271,0.021
	c0.079,0,0.164-0.003,0.278-0.012c2.443-0.174,4.517-2.034,4.932-4.424c0.43-2.475-0.843-4.87-3.095-5.824
	c-0.509-0.216-1.505-0.063-1.417-2.198c0,0,0.042-0.42,0.044-0.562c0.039-2.778,2.379-4.99,5.152-4.993
	c2.779,0,5.023,2.087,5.113,4.901c0.02,0.589,0.378,0.867,0.895,0.867h0.021c0.247,0,0.462,0.022,0.62-0.145
	c0.173-0.182,0.262-0.386,0.253-0.68c-0.017-0.476-0.075-0.927-0.175-1.398C36.983,18.859,34.145,16.63,30.892,16.63"/>
</svg>
