<?xml version="1.0" encoding="utf-8"?>
<!-- Generator: Adobe Illustrator 16.0.0, SVG Export Plug-In . SVG Version: 6.00 Build 0)  -->
<!DOCTYPE svg PUBLIC "-//W3C//DTD SVG 1.1//EN" "http://www.w3.org/Graphics/SVG/1.1/DTD/svg11.dtd">
<svg version="1.1" id="Layer_1" xmlns="http://www.w3.org/2000/svg" xmlns:xlink="http://www.w3.org/1999/xlink" x="0px" y="0px"
	 width="20px" height="20px" viewBox="0 0 20 20" enable-background="new 0 0 20 20" xml:space="preserve">
<g>
	<g opacity="0.6">
		<g>
			<defs>
				<rect id="SVGID_1_" x="1.474" y="1.616" width="17.277" height="16.778"/>
			</defs>
			<clipPath id="SVGID_2_">
				<use xlink:href="#SVGID_1_"  overflow="visible"/>
			</clipPath>
			<rect x="1.475" y="1.616" clip-path="url(#SVGID_2_)" width="17.276" height="16.778"/>
		</g>
	</g>
	<path fill="#FFFFFF" d="M11.814,10.218l-0.252-0.252l0.252-0.252L15.26,6.27c0.117-0.117,0.181-0.272,0.181-0.438
		c0-0.165-0.064-0.32-0.181-0.436L14.57,4.707c-0.117-0.117-0.272-0.182-0.438-0.182c-0.165,0-0.32,0.065-0.437,0.181l-3.444,3.445
		L10,8.403L9.748,8.151L6.304,4.706C6.187,4.59,6.032,4.525,5.866,4.525c-0.165,0-0.32,0.065-0.438,0.181L4.74,5.395
		C4.623,5.512,4.559,5.667,4.559,5.832c0,0.166,0.065,0.321,0.182,0.438l3.444,3.445l0.251,0.251l-0.251,0.252L4.74,13.663
		c-0.116,0.116-0.182,0.271-0.182,0.436s0.064,0.321,0.182,0.438l0.688,0.689c0.117,0.116,0.272,0.18,0.438,0.18
		c0.166,0,0.32-0.064,0.438-0.181l3.444-3.444L10,11.53l0.251,0.251l3.444,3.445c0.116,0.116,0.272,0.18,0.438,0.18
		s0.32-0.064,0.438-0.181l0.689-0.688c0.117-0.117,0.181-0.273,0.181-0.438s-0.064-0.32-0.181-0.436L11.814,10.218z"/>
	<path fill="#FFFFFF" d="M17.65,0H2.349C1.052,0,0,1.052,0,2.349V17.65C0,18.948,1.052,20,2.349,20H17.65
		c1.298,0,2.35-1.052,2.35-2.35V2.349C20,1.052,18.948,0,17.65,0 M18.333,17.65c0,0.382-0.301,0.683-0.683,0.683H2.349
		c-0.382,0-0.683-0.301-0.683-0.683V2.349c0-0.382,0.301-0.683,0.683-0.683h15.293l0.007-0.006c0.382,0,0.685,0.307,0.685,0.689
		V17.65z"/>
</g>
</svg>
