<?xml version="1.0" encoding="utf-8"?>
<!-- Generator: Adobe Illustrator 18.1.1, SVG Export Plug-In . SVG Version: 6.00 Build 0)  -->
<svg version="1.1" id="Layer_1" xmlns="http://www.w3.org/2000/svg" xmlns:xlink="http://www.w3.org/1999/xlink" x="0px" y="0px"
	 viewBox="0 0 24 18" enable-background="new 0 0 24 18" xml:space="preserve">
<path fill="#8DC03F" d="M1.5,1.7c-0.4,0.5-0.7,1-1,1.6C0.3,4,0.2,4.6,0.2,5.2c0,1.3,0.4,2.5,1.1,3.4C2,9.6,3,10.1,4.1,10.3l0.4,0
	l0.4,0.1c0.5,0.1,0.8,0.3,0.8,0.6c0,0.4-0.4,1-1.1,1.7c-0.8,0.9-2,1.7-3.6,2.6c-0.7,0.4-1,0.8-1,1.4c0,0.4,0.1,0.6,0.4,0.9
	C0.6,17.9,0.9,18,1.2,18c0.9,0,2.1-0.5,3.7-1.6c1.9-1.3,3.4-2.8,4.5-4.6c1.1-1.8,1.7-3.6,1.7-5.3c0-0.8-0.2-1.7-0.5-2.5
	C10.4,3.1,10,2.4,9.4,1.9C8.3,0.6,7,0,5.5,0C3.9,0,2.6,0.6,1.5,1.7L1.5,1.7z M14.5,1.7c-0.4,0.5-0.7,1-1,1.7
	c-0.2,0.6-0.4,1.3-0.4,1.9c0,1.3,0.4,2.5,1.1,3.4c0.7,0.9,1.7,1.5,2.8,1.7l0.4,0l0.3,0.1c0.5,0.1,0.8,0.3,0.8,0.6
	c0,0.4-0.4,1-1.1,1.7c-0.7,0.8-1.9,1.7-3.6,2.6c-0.7,0.4-1,0.8-1,1.4c0,0.4,0.1,0.6,0.4,0.9c0.2,0.2,0.5,0.3,0.9,0.3
	c0.9,0,2.1-0.5,3.7-1.6c1.9-1.3,3.4-2.8,4.5-4.6C23.4,10,24,8.2,24,6.4c0-0.8-0.2-1.7-0.5-2.5c-0.3-0.8-0.7-1.5-1.2-2.1
	C21.2,0.6,19.9,0,18.4,0C16.8,0,15.5,0.6,14.5,1.7L14.5,1.7z"/>
</svg>
