<?xml version="1.0" encoding="utf-8"?>
<!-- Generator: Adobe Illustrator 18.1.1, SVG Export Plug-In . SVG Version: 6.00 Build 0)  -->
<svg version="1.1" id="Layer_1" xmlns="http://www.w3.org/2000/svg" xmlns:xlink="http://www.w3.org/1999/xlink" x="0px" y="0px"
	 viewBox="0 0 9.2 14.8" enable-background="new 0 0 9.2 14.8" xml:space="preserve">
<g>
	<path d="M4.7,10c1.2,0,2.2-1,2.2-2.1h0V2.2C6.9,1,5.9,0,4.7,0S2.5,1,2.5,2.2v5.6h0C2.6,8.9,3.5,10,4.7,10"/>
	<path d="M8.6,6.1C8.3,6.1,8,6.4,8,6.8v1c0,1.9-1.5,3.4-3.4,3.4c-1.9,0-3.4-1.5-3.4-3.4v-1c0-0.3-0.3-0.6-0.6-0.6
		C0.3,6.1,0,6.4,0,6.8v1c0,2.4,1.8,4.4,4.2,4.6v1.2h-2c-0.3,0-0.6,0.3-0.6,0.6s0.3,0.6,0.6,0.6h5c0.3,0,0.6-0.3,0.6-0.6
		s-0.3-0.6-0.6-0.6h-2v-1.2c2.3-0.3,4-2.2,4-4.6v-1C9.2,6.4,9,6.1,8.6,6.1"/>
</g>
</svg>
