<?xml version="1.0" encoding="utf-8"?>
<!-- Generator: Adobe Illustrator 18.1.0, SVG Export Plug-In . SVG Version: 6.00 Build 0)  -->
<svg version="1.1" id="Layer_1" xmlns="http://www.w3.org/2000/svg" xmlns:xlink="http://www.w3.org/1999/xlink" x="0px" y="0px"
	 viewBox="-321 103.1 47.2 47.2" enable-background="new -321 103.1 47.2 47.2" xml:space="preserve">
<path fill="#FFE13A" d="M-289.7,110.1h7.6c0.7,0,1.3,0.6,1.3,1.3v7.6c0,0.7,0.6,1.3,1.3,1.3h4.4c0.7,0,1.3-0.6,1.3-1.3v-14.6
	c0-0.7-0.6-1.3-1.3-1.3h-14.6c-0.7,0-1.3,0.6-1.3,1.3v4.4C-291,109.5-290.4,110.1-289.7,110.1"/>
<path fill="#FFE13A" d="M-314,119v-7.6c0-0.7,0.6-1.3,1.3-1.3h7.6c0.7,0,1.3-0.6,1.3-1.3v-4.4c0-0.7-0.6-1.3-1.3-1.3h-14.6
	c-0.7,0-1.3,0.6-1.3,1.3V119c0,0.7,0.6,1.3,1.3,1.3h4.4C-314.6,120.3-314,119.7-314,119"/>
<path fill="#FFE13A" d="M-305.1,143.3h-7.6c-0.7,0-1.3-0.6-1.3-1.3v-7.6c0-0.7-0.6-1.3-1.3-1.3h-4.5c-0.7,0-1.3,0.6-1.3,1.3V149
	c0,0.7,0.6,1.3,1.3,1.3h14.6c0.7,0,1.3-0.6,1.3-1.3v-4.4C-303.8,143.9-304.4,143.3-305.1,143.3"/>
<path fill="#FFE13A" d="M-280.8,134.4v7.6c0,0.7-0.6,1.3-1.3,1.3h-7.6c-0.7,0-1.3,0.6-1.3,1.3v4.4c0,0.7,0.6,1.3,1.3,1.3h14.6
	c0.7,0,1.3-0.6,1.3-1.3v-14.6c0-0.7-0.6-1.3-1.3-1.3h-4.4C-280.3,133.1-280.8,133.7-280.8,134.4"/>
</svg>
