<?xml version="1.0" encoding="utf-8"?>
<!-- Generator: Adobe Illustrator 16.0.0, SVG Export Plug-In . SVG Version: 6.00 Build 0)  -->
<!DOCTYPE svg PUBLIC "-//W3C//DTD SVG 1.1//EN" "http://www.w3.org/Graphics/SVG/1.1/DTD/svg11.dtd">
<svg version="1.1" id="Layer_1" xmlns="http://www.w3.org/2000/svg" xmlns:xlink="http://www.w3.org/1999/xlink" x="0px" y="0px"
	 width="31.2px" height="28.989px" viewBox="0 0 31.2 28.989" enable-background="new 0 0 31.2 28.989" xml:space="preserve">
<path d="M23.157,12.415c0.595,0.659,1.121,1.24,1.698,1.879c-0.101,0.068-0.227,0.134-0.328,0.227
	c-4.262,3.82-8.529,7.632-12.772,11.473c-0.53,0.481-1.094,0.769-1.781,0.928c-2.816,0.653-5.624,1.343-8.436,2.017
	c-0.629,0.15-1.099-0.03-1.39-0.52c-0.193-0.324-0.18-0.671-0.063-1.007c1.034-2.985,2.071-5.969,3.121-8.948
	c0.073-0.205,0.218-0.41,0.382-0.557c2.82-2.534,5.649-5.059,8.476-7.587c1.617-1.447,3.23-2.896,4.844-4.347
	c0.08-0.073,0.131-0.177,0.187-0.252c0.53,0.588,1,1.11,1.529,1.697C18.53,7.479,18.4,7.541,18.299,7.633
	c-4.255,3.843-8.508,7.687-12.754,11.539c-0.16,0.146-0.299,0.349-0.371,0.552c-0.568,1.59-1.115,3.188-1.677,4.781
	c-0.062,0.18-0.06,0.309,0.084,0.451c0.241,0.237,0.47,0.488,0.682,0.752c0.135,0.17,0.271,0.18,0.466,0.133
	c1.562-0.382,3.13-0.748,4.691-1.136c0.201-0.05,0.407-0.164,0.562-0.303c4.324-3.899,8.641-7.806,12.958-11.712
	C23.026,12.611,23.088,12.503,23.157,12.415"/>
<path d="M19.855,8.756c0.037,0.037,0.088,0.083,0.135,0.134c0.624,0.682,1.248,1.364,1.833,2.005
	c-4.509,4.091-8.993,8.16-13.496,12.247c-0.052-0.474-0.115-0.943-0.151-1.416c-0.014-0.193-0.086-0.273-0.271-0.32
	c-0.52-0.131-1.033-0.284-1.519-0.42C10.872,16.913,15.359,12.838,19.855,8.756"/>
<path d="M29.076,9.933c-2.442-2.693-4.885-5.388-7.371-8.131c0.575-0.476,1.113-1.043,1.759-1.429
	c1.123-0.671,2.43-0.414,3.356,0.585c1.224,1.32,2.434,2.652,3.623,4.003c1.093,1.242,0.988,2.837-0.223,3.961
	C29.843,9.273,29.448,9.605,29.076,9.933"/>
<path d="M20.308,2.896c2.572,2.842,5.116,5.651,7.682,8.487c-0.617,0.524-1.251,1.061-1.87,1.585
	c-2.567-2.836-5.117-5.654-7.682-8.486C19.057,3.958,19.685,3.425,20.308,2.896"/>
</svg>
