<?xml version="1.0" encoding="utf-8"?>
<!-- Generator: Adobe Illustrator 15.0.0, SVG Export Plug-In . SVG Version: 6.00 Build 0)  -->
<!DOCTYPE svg PUBLIC "-//W3C//DTD SVG 1.1//EN" "http://www.w3.org/Graphics/SVG/1.1/DTD/svg11.dtd">
<svg version="1.1" id="Layer_1" xmlns="http://www.w3.org/2000/svg" xmlns:xlink="http://www.w3.org/1999/xlink" x="0px" y="0px"
	 width="36.529px" height="36.382px" viewBox="0 0 36.529 36.382" enable-background="new 0 0 36.529 36.382" xml:space="preserve">
<path d="M15.632,20.736c-0.817-0.818-2.146-0.816-2.967,0l-8.43,8.432v-4.559c0-1.232-0.938-2.236-2.098-2.236
	c-1.155,0.004-2.098,1.004-2.098,2.236l0.004,9.52c-0.004,1.236,0.936,2.238,2.095,2.238c0.028-0.002,0.058-0.008,0.086-0.008
	c0.04,0,0.079,0.01,0.121,0.01h9.391c1.219-0.002,2.204-0.939,2.204-2.1c0-1.162-0.987-2.098-2.206-2.1l-4.573,0.002l8.47-8.473
	C16.451,22.884,16.451,21.556,15.632,20.736"/>
<path d="M20.898,15.645c0.819,0.819,2.146,0.817,2.968,0l8.43-8.43v4.557c0,1.234,0.938,2.237,2.098,2.237
	c1.157-0.002,2.098-1.002,2.098-2.237l-0.002-9.519c0.002-1.237-0.936-2.239-2.096-2.239c-0.03,0.002-0.059,0.009-0.086,0.009
	c-0.042,0-0.079-0.011-0.123-0.011h-9.39c-1.221,0.002-2.206,0.939-2.206,2.098c0,1.161,0.987,2.101,2.208,2.103l4.568-0.002
	l-8.468,8.47C20.077,13.495,20.077,14.822,20.898,15.645"/>
<path d="M15.634,15.645c0.817-0.819,0.815-2.146,0-2.965L7.202,4.248h4.56c1.232,0,2.235-0.938,2.235-2.098
	c-0.003-1.155-1.003-2.095-2.236-2.095L2.24,0.057C1.006,0.055,0.003,0.993,0.003,2.153c0.002,0.028,0.009,0.055,0.009,0.085
	c0,0.04-0.013,0.08-0.013,0.122v9.392c0.004,1.219,0.941,2.203,2.1,2.203c1.162,0,2.1-0.986,2.102-2.206L4.198,7.177l8.472,8.468
	C13.485,16.466,14.813,16.466,15.634,15.645"/>
<path d="M20.898,20.779c-0.816,0.818-0.814,2.146,0,2.967l8.433,8.43h-4.56c-1.234,0-2.234,0.938-2.234,2.1
	c0.002,1.154,1,2.096,2.234,2.096l9.519-0.002c1.239,0.002,2.239-0.938,2.239-2.096c-0.002-0.031-0.009-0.059-0.009-0.086
	c0-0.043,0.011-0.08,0.011-0.125v-9.389c-0.002-1.219-0.938-2.205-2.098-2.205s-2.1,0.988-2.102,2.209l0.002,4.568l-8.47-8.467
	C23.046,19.957,21.719,19.957,20.898,20.779"/>
</svg>
