<?xml version="1.0" encoding="utf-8"?>
<!-- Generator: Adobe Illustrator 16.0.0, SVG Export Plug-In . SVG Version: 6.00 Build 0)  -->
<!DOCTYPE svg PUBLIC "-//W3C//DTD SVG 1.1//EN" "http://www.w3.org/Graphics/SVG/1.1/DTD/svg11.dtd">
<svg version="1.1" id="Layer_1" xmlns="http://www.w3.org/2000/svg" xmlns:xlink="http://www.w3.org/1999/xlink" x="0px" y="0px"
	 width="60.234px" height="60.233px" viewBox="0 0 60.234 60.233" enable-background="new 0 0 60.234 60.233" xml:space="preserve">
<path fill="#585555" d="M48.82,3.416c4.41,0,7.998,3.587,7.998,7.997v37.408c0,4.408-3.588,7.996-7.998,7.996H11.413
	c-4.41,0-7.997-3.588-7.997-7.996V11.413c0-4.41,3.587-7.997,7.997-7.997H48.82 M48.82,0H11.413C5.11,0,0,5.11,0,11.413v37.408
	c0,6.303,5.11,11.412,11.413,11.412H48.82c6.304,0,11.414-5.109,11.414-11.412V11.413C60.234,5.11,55.124,0,48.82,0"/>
<path fill="#585555" d="M51.722,18.114c-0.001-0.375-0.048-0.763-0.149-1.124c-0.58-2.046-2.186-3.257-4.34-3.261
	c-4.506-0.01-9.013-0.006-13.52-0.001c-0.889,0.001-1.741,0.189-2.481,0.7c-0.411,0.283-0.769,0.642-1.163,0.977
	c0.01,0.001-0.008,0.003-0.016-0.004c-0.042-0.038-0.085-0.075-0.121-0.118c-0.892-1.063-2.059-1.548-3.419-1.552
	c-4.535-0.013-9.07-0.014-13.605,0c-1.411,0.004-2.37,0.532-3.276,1.647c-0.53,0.655-0.8,1.422-0.8,2.225
	c0,0-0.088,26.155-0.076,26.223c0.234,1.376,0.848,2.404,2.056,3.103c0.758,0.437,1.526,0.557,2.381,0.558
	c4.394,0,8.759,0.005,13.153-0.004c0.938-0.002,1.85-0.156,2.222,0.959c0.238,0.712,0.012,0.801,1.448,0.801
	c1.579,0,1.213-0.065,1.532-0.801c0.478-1.101,1.118-0.962,2.31-0.959c4.394,0.01,8.787,0.009,13.182-0.003
	c0.488-0.001,0.994-0.03,1.461-0.16c1.982-0.551,3.222-2.172,3.224-4.234C51.734,34.761,51.73,26.438,51.722,18.114 M28.579,44.798
	c0,0.09-0.008,0.179-0.018,0.369c-1.094-0.813-2.296-0.795-3.506-0.791c-3.791,0.01-7.089-0.055-10.88-0.058
	c-1.289-0.002-2.191-0.646-2.491-1.79c-0.077-0.294-0.094-0.611-0.094-0.918c-0.005-7.572-0.005-14.747-0.003-22.319
	c0-1.418,0.656-2.345,1.862-2.63c0.236-0.056,0.487-0.066,0.732-0.066c4.101-0.004,7.71,0.055,11.811,0.059
	c1.299,0.001,2.213,0.647,2.503,1.772c0.067,0.258,0.081,0.535,0.081,0.804C28.58,27.753,28.58,36.276,28.579,44.798 M49.059,41.63
	c-0.001,0.477-0.089,0.985-0.275,1.42c-0.348,0.813-1.051,1.221-1.931,1.31c-0.31,0.032-0.625,0.019-0.937,0.019
	c-3.65,0.002-7.069,0.008-10.719-0.002c-1.207-0.004-2.283-0.023-3.283,0.813v-0.467c0-8.484-0.228-16.968-0.234-25.452
	c-0.001-1.059,0.252-1.904,1.248-2.363c0.363-0.167,0.744-0.242,1.148-0.244c4.158-0.017,8.289-0.016,12.447-0.008
	c1.51,0.003,2.412,0.858,2.547,2.347c0.012,0.128,0.006,0.258,0.006,0.386C49.078,26.802,49.076,34.216,49.059,41.63"/>
</svg>
