<?xml version="1.0" encoding="utf-8"?>
<!-- Generator: Adobe Illustrator 16.0.0, SVG Export Plug-In . SVG Version: 6.00 Build 0)  -->
<!DOCTYPE svg PUBLIC "-//W3C//DTD SVG 1.1//EN" "http://www.w3.org/Graphics/SVG/1.1/DTD/svg11.dtd">
<svg version="1.1" id="Layer_1" xmlns="http://www.w3.org/2000/svg" xmlns:xlink="http://www.w3.org/1999/xlink" x="0px" y="0px"
	 width="40px" height="34.91px" viewBox="0 0 40 34.91" enable-background="new 0 0 40 34.91" xml:space="preserve">
<path fill="#999999" d="M38,0H2C0.9,0,0,0.899,0,2v24.718c0,1.1,0.9,2,2,2h6.125c0.5,0,0.906,0.406,0.906,0.906v4.375l0.019,0.008
	c0.048,0.504,0.459,0.903,0.977,0.903c0.249,0,0.47-0.101,0.644-0.252l0.011,0.005l8.744-5.699c0.113-0.068,0.519-0.246,1.664-0.246
	H38c1.1,0,2-0.9,2-2V2C40,0.899,39.1,0,38,0 M10.746,16.46c-0.748,0-1.36-0.612-1.36-1.36v-1.48c0-0.749,0.612-1.361,1.36-1.361
	h18.508c0.748,0,1.36,0.612,1.36,1.361v1.48c0,0.748-0.612,1.36-1.36,1.36H10.746z"/>
</svg>
