<?xml version="1.0" encoding="utf-8"?>
<!-- Generator: Adobe Illustrator 18.1.0, SVG Export Plug-In . SVG Version: 6.00 Build 0)  -->
<svg version="1.1" id="Layer_1" xmlns="http://www.w3.org/2000/svg" xmlns:xlink="http://www.w3.org/1999/xlink" x="0px" y="0px"
	 viewBox="-322 106.2 45.7 42.1" enable-background="new -322 106.2 45.7 42.1" xml:space="preserve">
<path fill="#FFFFFF" d="M-312.1,118.4l-0.1,1.8c-0.1,1.5-0.2,3.3-0.2,5.1c-0.1,4.6,0.2,8.6,1,12.3c0.7,3.3,1.7,5.9,3.2,7.7
	c1.5,1.8,3.2,2.8,5.5,3c1.5,0.1,3.1-0.1,4.8-0.6c-1-0.2-1.8-0.5-2.7-1c-2.8-1.6-4.7-4.8-5.7-9.6c-0.6-2.9-0.8-6.3-0.8-10.6
	c0-2.1,0.1-4,0.2-6.1l0.1-1.8l5.7,6.2c0.3,0.3,0.7,0.5,1.2,0.6c0.5,0,0.9-0.1,1.2-0.5l0.9-0.9c0.7-0.7,0.8-1.8,0.1-2.5l-10.1-11.1
	c-0.7-0.6-1.3-0.6-1.3-0.6c-0.5,0-1,0.2-1.4,0.5l-10.9,10.3c-0.7,0.7-0.8,1.8-0.1,2.5l0.8,0.9c0.3,0.3,0.7,0.5,1.2,0.6
	c0.5,0,0.9-0.1,1.2-0.5L-312.1,118.4z"/>
<path fill="#FFFFFF" d="M-298.4,129.1c-0.5,0-0.9,0.1-1.2,0.5l-0.9,0.9c-0.7,0.7-0.8,1.8-0.1,2.5l10.1,11.2c0.3,0.4,0.8,0.6,1.3,0.6
	c0,0,0.8,0,1.4-0.6l10.9-10.3c0.7-0.7,0.8-1.8,0.1-2.6l-0.8-0.9c-0.3-0.3-0.7-0.5-1.2-0.6c-0.5,0-0.9,0.1-1.2,0.5l-6.2,5.8l0.1-1.8
	c0.1-1.5,0.2-3.3,0.2-5.1c0.1-4.6-0.2-8.6-1-12.3c-0.7-3.3-1.7-5.9-3.2-7.7c-1.5-1.8-3.2-2.8-5.5-3c-1.5-0.1-3,0.1-4.8,0.6
	c0.9,0.2,1.7,0.5,2.6,1c2.8,1.6,4.7,4.8,5.7,9.6c0.6,2.9,0.8,6.3,0.8,10.6c0,2.1-0.1,4-0.2,6.1l-0.1,1.8l-5.7-6.2
	C-297.5,129.3-297.9,129.1-298.4,129.1"/>
</svg>
