<?xml version="1.0" encoding="utf-8"?>
<!-- Generator: Adobe Illustrator 16.0.0, SVG Export Plug-In . SVG Version: 6.00 Build 0)  -->
<!DOCTYPE svg PUBLIC "-//W3C//DTD SVG 1.1//EN" "http://www.w3.org/Graphics/SVG/1.1/DTD/svg11.dtd">
<svg version="1.1" id="Layer_1" xmlns="http://www.w3.org/2000/svg" xmlns:xlink="http://www.w3.org/1999/xlink" x="0px" y="0px"
	 width="39.223px" height="26.817px" viewBox="0 0 39.223 26.817" enable-background="new 0 0 39.223 26.817" xml:space="preserve">
<path d="M20.094,0.004c3.765,0.113,7.225,1.212,10.394,3.233c3.86,2.461,6.68,5.84,8.688,9.924c0.063,0.13,0.064,0.345,0.002,0.473
	c-2.555,5.125-6.261,9.107-11.557,11.449c-4.064,1.798-8.29,2.227-12.621,1.149c-5.608-1.395-9.89-4.679-13.107-9.406
	c-0.681-1.001-1.234-2.092-1.825-3.152c-0.076-0.137-0.091-0.377-0.023-0.515C2.393,8.394,5.8,4.635,10.562,2.19
	C13.55,0.657,16.733-0.062,20.094,0.004 M19.907,3.233c-1.937,0.016-3.53,0.233-5.075,0.723C9.896,5.518,6.312,8.73,3.728,13.14
	c-0.078,0.134-0.06,0.399,0.021,0.541c1.732,3.034,4.035,5.537,7.043,7.335c4.714,2.817,9.68,3.374,14.827,1.384
	c4.354-1.683,7.544-4.737,9.878-8.736c0.141-0.239,0.082-0.398-0.033-0.597c-1.039-1.766-2.27-3.381-3.766-4.784
	C28.295,5.089,24.3,3.307,19.907,3.233"/>
<path d="M14.508,13.345c0.066-2.9,2.375-5.163,5.251-5.059c2.98,0.108,5.063,2.559,4.961,5.402c-0.096,2.62-2.491,4.88-5.195,4.824
	C16.717,18.458,14.443,16.117,14.508,13.345"/>
</svg>
