<?xml version="1.0" encoding="utf-8"?>
<!-- Generator: Adobe Illustrator 16.0.0, SVG Export Plug-In . SVG Version: 6.00 Build 0)  -->
<!DOCTYPE svg PUBLIC "-//W3C//DTD SVG 1.1//EN" "http://www.w3.org/Graphics/SVG/1.1/DTD/svg11.dtd">
<svg version="1.1" id="Layer_1" xmlns="http://www.w3.org/2000/svg" xmlns:xlink="http://www.w3.org/1999/xlink" x="0px" y="0px"
	 width="42.531px" height="30.41px" viewBox="0 0 42.531 30.41" enable-background="new 0 0 42.531 30.41" xml:space="preserve">
<path d="M42.531,3.615v22.754c0,1.625-1.335,4.041-3.97,4.041H4.183C0.879,30.41,0,27.371,0,26.369V4.04C0,2.762,0.819,0,4.04,0
	h34.521C39.55,0,42.531,0.196,42.531,3.615 M4.521,2.414c0,0,16.156,16.188,16.148,16.162c0.45,0.471,0.95,0.358,1.366-0.011
	c0.009,0,16.098-16.151,16.098-16.151H4.521z M6.815,28.103h28.799c-3.311-3.305-6.627-6.613-9.946-9.925
	c-1.179,1.177-2.391,2.386-3.604,3.595c-0.539,0.537-0.898,0.535-1.441-0.012c-1.165-1.173-2.33-2.348-3.494-3.521
	c-0.089-0.09-0.183-0.174-0.216-0.205C13.526,21.41,10.168,24.76,6.815,28.103 M27.325,16.544l11.068,11.029
	c0,0,0.714,0.507,1.198,0.005c0.221-0.229,0.41-0.53,0.502-0.832c0.114-0.377,0.156-1.187,0.156-1.187L40.237,3.672L27.325,16.544z
	 M15.22,16.45L2.543,3.81c0,0,0,14.888,0.004,22.201c0,0.27-0.015,0.564,0.084,0.805c0.137,0.338,0.339,0.664,0.575,0.939
	c0.202,0.234,0.708-0.036,0.708-0.036L15.22,16.45z"/>
</svg>
