<?xml version="1.0" encoding="utf-8"?>
<!-- Generator: Adobe Illustrator 16.0.0, SVG Export Plug-In . SVG Version: 6.00 Build 0)  -->
<!DOCTYPE svg PUBLIC "-//W3C//DTD SVG 1.1//EN" "http://www.w3.org/Graphics/SVG/1.1/DTD/svg11.dtd">
<svg version="1.1" id="Layer_1" xmlns="http://www.w3.org/2000/svg" xmlns:xlink="http://www.w3.org/1999/xlink" x="0px" y="0px"
	 width="34.02px" height="51.725px" viewBox="0 0 34.02 51.725" enable-background="new 0 0 34.02 51.725" xml:space="preserve">
<path d="M11.558,15.696c-0.233,0.786-0.024,1.069,0.727,1.063c3.145-0.024,6.289-0.021,9.435-0.003
	c0.863,0.004,0.966-0.363,0.656-1.061H11.558z"/>
<path d="M13.182,0c1.558,2.503,3.104,5.013,4.677,7.507c1.491,2.369,3.012,4.72,4.541,7.112c-0.134,0.083-0.221,0.184-0.307,0.184
	c-3.345,0.012-6.69,0.024-10.034,0.001c-0.291-0.002-0.706-0.172-0.853-0.399C8.161,9.651,5.147,4.879,2.127,0.109
	C2.108,0.077,2.104,0.036,2.093,0H13.182z"/>
<path d="M31.893,0c-1.396,2.245-2.777,4.501-4.188,6.735c-1.513,2.396-3.054,4.771-4.678,7.306c-1.828-2.864-3.587-5.59-5.291-8.349
	c-0.132-0.213,0.044-0.712,0.212-0.998c0.929-1.579,1.9-3.133,2.857-4.694H31.893z"/>
<path d="M11.558,15.696h10.817c0.31,0.697,0.207,1.064-0.656,1.061c-3.146-0.018-6.29-0.021-9.435,0.003
	C11.533,16.766,11.324,16.482,11.558,15.696"/>
<path d="M30.068,34.715c0-7.212-5.846-13.06-13.059-13.06c-7.212,0-13.059,5.848-13.059,13.06S9.798,47.773,17.01,47.773
	C24.223,47.773,30.068,41.927,30.068,34.715"/>
<path d="M17.01,51.725C7.631,51.725,0,44.094,0,34.715s7.631-17.011,17.01-17.011s17.01,7.632,17.01,17.011
	S26.389,51.725,17.01,51.725 M17.01,20.204c-8.001,0-14.51,6.51-14.51,14.511s6.509,14.51,14.51,14.51s14.51-6.509,14.51-14.51
	S25.011,20.204,17.01,20.204"/>
</svg>
