<?xml version="1.0" encoding="utf-8"?>
<!-- Generator: Adobe Illustrator 18.1.1, SVG Export Plug-In . SVG Version: 6.00 Build 0)  -->
<svg version="1.1" id="Layer_1" xmlns="http://www.w3.org/2000/svg" xmlns:xlink="http://www.w3.org/1999/xlink" x="0px" y="0px"
	 viewBox="0 0 24 18" enable-background="new 0 0 24 18" xml:space="preserve">
<path fill="#8DC03F" d="M22.5,16.3c0.4-0.5,0.7-1,1-1.6c0.2-0.6,0.4-1.3,0.4-1.9c0-1.3-0.4-2.5-1.1-3.4C22,8.4,21,7.9,19.9,7.7
	l-0.4,0l-0.4-0.1c-0.5-0.1-0.8-0.3-0.8-0.6c0-0.4,0.4-1,1.1-1.7c0.8-0.9,2-1.7,3.6-2.6c0.7-0.4,1-0.8,1-1.4c0-0.4-0.1-0.6-0.4-0.9
	C23.4,0.1,23.1,0,22.8,0c-0.9,0-2.1,0.5-3.7,1.6c-1.9,1.3-3.4,2.8-4.5,4.6c-1.1,1.8-1.7,3.6-1.7,5.3c0,0.8,0.2,1.7,0.5,2.5
	c0.3,0.8,0.7,1.5,1.2,2.1c1.1,1.2,2.4,1.9,4,1.9C20.1,18,21.4,17.4,22.5,16.3L22.5,16.3z M9.5,16.3c0.4-0.5,0.7-1,1-1.7
	c0.2-0.6,0.4-1.3,0.4-1.9c0-1.3-0.4-2.5-1.1-3.4C9.1,8.4,8.2,7.8,7,7.7l-0.4,0L6.2,7.6C5.7,7.5,5.4,7.3,5.4,6.9c0-0.4,0.4-1,1.1-1.7
	c0.7-0.8,1.9-1.7,3.6-2.6c0.7-0.4,1-0.8,1-1.4c0-0.4-0.1-0.6-0.4-0.9C10.5,0.1,10.2,0,9.8,0C8.9,0,7.7,0.5,6.1,1.6
	C4.3,2.9,2.8,4.4,1.7,6.2C0.6,8,0,9.8,0,11.6c0,0.8,0.2,1.7,0.5,2.5c0.3,0.8,0.7,1.5,1.2,2.1C2.8,17.4,4.1,18,5.6,18
	C7.2,18,8.5,17.4,9.5,16.3L9.5,16.3z"/>
</svg>
