<?xml version="1.0" encoding="utf-8"?>
<!-- Generator: Adobe Illustrator 16.0.0, SVG Export Plug-In . SVG Version: 6.00 Build 0)  -->
<!DOCTYPE svg PUBLIC "-//W3C//DTD SVG 1.1//EN" "http://www.w3.org/Graphics/SVG/1.1/DTD/svg11.dtd">
<svg version="1.1" id="Layer_1" xmlns="http://www.w3.org/2000/svg" xmlns:xlink="http://www.w3.org/1999/xlink" x="0px" y="0px"
	 width="25.304px" height="25.302px" viewBox="0 0 25.304 25.302" enable-background="new 0 0 25.304 25.302" xml:space="preserve">
<path fill="#ffffff" d="M24.682,20.17c0.829,0.827,0.829,2.175,0,3.006l-1.508,1.505c-0.83,0.828-2.172,0.828-3.006,0l-7.517-7.518l-7.518,7.518
	c-0.83,0.828-2.178,0.828-3.008,0l-1.504-1.505c-0.83-0.831-0.83-2.179,0-3.006l7.519-7.519L0.623,5.133
	c-0.83-0.83-0.83-2.179,0-3.008l1.504-1.503c0.83-0.83,2.178-0.83,3.008,0l7.518,7.518l7.517-7.518c0.83-0.83,2.176-0.83,3.006,0
	l1.508,1.505c0.829,0.827,0.829,2.176,0,3.006l-7.519,7.518L24.682,20.17z"/>
</svg>
