<?xml version="1.0" encoding="utf-8"?>
<!-- Generator: Adobe Illustrator 16.0.0, SVG Export Plug-In . SVG Version: 6.00 Build 0)  -->
<!DOCTYPE svg PUBLIC "-//W3C//DTD SVG 1.1//EN" "http://www.w3.org/Graphics/SVG/1.1/DTD/svg11.dtd">
<svg version="1.1" id="Layer_1" xmlns="http://www.w3.org/2000/svg" xmlns:xlink="http://www.w3.org/1999/xlink" x="0px" y="0px"
	 width="60.234px" height="60.233px" viewBox="0 0 60.234 60.233" enable-background="new 0 0 60.234 60.233" xml:space="preserve">
<path fill="#585555" d="M48.82,3.416c4.41,0,7.998,3.587,7.998,7.997v37.408c0,4.408-3.588,7.996-7.998,7.996H11.413
	c-4.41,0-7.997-3.588-7.997-7.996V11.413c0-4.41,3.587-7.997,7.997-7.997H48.82 M48.82,0H11.413C5.11,0,0,5.11,0,11.413v37.408
	c0,6.303,5.11,11.412,11.413,11.412H48.82c6.303,0,11.414-5.109,11.414-11.412V11.413C60.234,5.11,55.123,0,48.82,0"/>
<path fill="#585555" d="M13.625,39.837c-0.387,0-0.784-0.024-1.18-0.074c-0.465-0.057-0.867-0.352-1.061-0.777
	c-0.196-0.428-0.156-0.924,0.105-1.314c0.012-0.018,0.874-1.311,1.784-2.86c-2.718-0.157-4.882-2.418-4.882-5.174V18.915
	c0-2.858,2.326-5.183,5.183-5.183h22.354c2.856,0,5.182,2.325,5.182,5.183v10.722c0,2.857-2.325,5.183-5.182,5.183H21.883
	C19.731,38.106,16.89,39.837,13.625,39.837 M13.278,16.162c-1.403,0-2.546,1.141-2.546,2.546v11.007
	c0,1.402,1.143,2.545,2.546,2.545h2.039c0.482,0,0.931,0.252,1.183,0.662c0.252,0.414,0.271,0.929,0.051,1.357
	c-0.514,1.001-1.116,2.041-1.652,2.928c2.336-0.627,3.948-2.58,4.943-4.267c0.25-0.422,0.704-0.681,1.195-0.681h15.187
	c1.402,0,2.545-1.144,2.545-2.545V18.708c0-1.405-1.143-2.546-2.545-2.546H13.278z"/>
<path fill="#585555" d="M46.66,21.409h-5.55v2.703h5.55c1.367,0,2.479,1.111,2.479,2.479v10.723c0,1.366-1.112,2.479-2.479,2.479
	h-1.984c-0.473,0-0.909,0.244-1.154,0.647c-0.246,0.401-0.264,0.899-0.049,1.319c0.5,0.977,1.086,1.99,1.609,2.853
	c-2.276-0.61-3.848-2.514-4.816-4.155c-0.243-0.412-0.686-0.664-1.164-0.664H24.308c-1.368,0-2.48-1.113-2.48-2.479V34.9
	c-0.801,1.208-1.696,2.201-2.671,2.974c0.279,2.594,2.482,4.623,5.151,4.623h14.044c2.15,3.286,4.995,5.019,8.258,5.019
	c0.387,0,0.784-0.026,1.18-0.075c0.465-0.059,0.867-0.352,1.062-0.779c0.195-0.425,0.154-0.924-0.105-1.312
	c-0.013-0.02-0.873-1.309-1.785-2.862c2.719-0.155,4.881-2.416,4.881-5.172V26.591C51.842,23.733,49.519,21.409,46.66,21.409"/>
<path fill="#585555" d="M20.574,24.596c0,0.975-0.792,1.766-1.768,1.766c-0.975,0-1.766-0.791-1.766-1.766
	c0-0.977,0.791-1.767,1.766-1.767C19.782,22.829,20.574,23.619,20.574,24.596"/>
<path fill="#585555" d="M26.778,24.596c0,0.975-0.791,1.766-1.767,1.766c-0.976,0-1.767-0.791-1.767-1.766
	c0-0.977,0.791-1.767,1.767-1.767C25.987,22.829,26.778,23.619,26.778,24.596"/>
<path fill="#585555" d="M32.982,24.596c0,0.975-0.791,1.766-1.767,1.766c-0.976,0-1.767-0.791-1.767-1.766
	c0-0.977,0.791-1.767,1.767-1.767C32.191,22.829,32.982,23.619,32.982,24.596"/>
</svg>
