<?xml version="1.0" encoding="utf-8"?>
<!-- Generator: Adobe Illustrator 16.0.0, SVG Export Plug-In . SVG Version: 6.00 Build 0)  -->
<!DOCTYPE svg PUBLIC "-//W3C//DTD SVG 1.1//EN" "http://www.w3.org/Graphics/SVG/1.1/DTD/svg11.dtd">
<svg version="1.1" id="Layer_1" xmlns="http://www.w3.org/2000/svg" xmlns:xlink="http://www.w3.org/1999/xlink" x="0px" y="0px"
	 width="60.234px" height="60.234px" viewBox="0 0 60.234 60.234" enable-background="new 0 0 60.234 60.234" xml:space="preserve">
<path fill="#585555" d="M48.821,3.416c4.409,0,7.997,3.587,7.997,7.997v37.408c0,4.409-3.588,7.997-7.997,7.997H11.413
	c-4.41,0-7.997-3.588-7.997-7.997V11.413c0-4.41,3.587-7.997,7.997-7.997H48.821 M48.821,0H11.413C5.11,0,0,5.11,0,11.413v37.408
	c0,6.304,5.11,11.413,11.413,11.413h37.408c6.303,0,11.413-5.109,11.413-11.413V11.413C60.234,5.11,55.124,0,48.821,0"/>
<path fill="#585555" d="M43.775,45.265H16.581c-1.384-4.499-0.147-6.717,4.225-7.732c1.28-0.299,2.595-0.535,3.807-1.019
	c1.73-0.69,1.99-1.948,0.845-3.388c-2.864-3.605-3.103-7.708-1.995-11.915c0.797-3.027,3.552-4.88,6.594-4.906
	c3.044-0.025,5.861,1.784,6.676,4.788c1.153,4.258,0.965,8.43-1.99,12.081c-1.107,1.366-0.881,2.558,0.765,3.274
	c1.084,0.472,2.274,0.73,3.44,0.982C43.769,38.473,44.808,40.09,43.775,45.265 M41.885,43.34c0.443-2.649,0.148-3.138-2.197-3.759
	c-1.447-0.383-2.943-0.616-4.346-1.119c-3.366-1.207-4.017-3.911-1.886-6.756c2.424-3.236,2.633-6.882,1.228-10.558
	c-0.779-2.037-2.555-2.978-4.738-2.922c-2.121,0.054-3.788,1.103-4.471,3.066c-1.261,3.625-1.109,7.231,1.311,10.404
	c2.152,2.82,1.495,5.549-1.876,6.76c-1.458,0.525-3.017,0.761-4.518,1.168c-2.244,0.611-2.624,1.343-1.935,3.716H41.885z"/>
<path fill="#585555" d="M15.484,40.621c-0.24,0.771-0.205,1.201-0.154,1.857H6.289c-0.723-4.135-0.037-5.191,3.843-6.078
	c0.467-0.107,0.942-0.188,1.396-0.333c1.731-0.56,1.846-1.021,0.832-2.497c-1.876-2.731-2.013-5.742-1.006-8.769
	c0.713-2.143,2.811-3.327,5.099-3.246c2.123,0.075,4.015,1.405,4.693,3.588c0.894,2.876,0.535,5.477-1.152,8.046
	c-1.157,1.763-1.018,2.184,0.997,2.947c0.217,0.082,0.89,0.207,1.347,0.35c-0.64,0.146-1.441,0.294-1.816,0.396
	c-0.668,0.182-1.695-0.103-2.253-0.834c-0.86-1.125-0.931-1.766-0.087-3.047c1.594-2.217,1.527-3.812,1.404-5.941
	c-0.124-2.149-1.424-3.495-3.322-3.54c-1.88-0.044-3.32,1.283-3.482,3.389c-0.163,2.117,0.002,4.157,1.483,5.933
	c1.42,1.703,0.894,3.801-1.17,4.711c-1.136,0.5-2.414,0.675-3.62,1.022c-0.91,0.263-1.652,0.505-1.481,2.036
	C10.346,40.611,12.944,40.621,15.484,40.621"/>
<path fill="#585555" d="M54.006,42.517h-9.168c0.084-0.6,0.156-1.047-0.133-1.754c2.474,0,4.92-0.029,7.232-0.029
	c0.58-1.317,0.002-1.836-1.004-2.106c-1.155-0.31-2.355-0.495-3.465-0.921c-2.364-0.91-2.965-3.061-1.387-5.021
	c1.586-1.971,1.643-4.216,1.234-6.483c-0.29-1.614-1.402-2.631-3.156-2.663c-1.729-0.032-2.898,0.829-3.287,2.486
	c-0.549,2.349-0.406,4.624,1.149,6.654c0.388,0.505,0.765,1.118,0.856,1.726c0.306,2.005-1.026,3.094-2.985,2.539
	c-0.401-0.113-0.978-0.192-1.671-0.358c0.599-0.251,1.268-0.49,1.677-0.67c1.162-0.511,1.333-1.138,0.485-2.2
	c-2.004-2.511-2.053-5.452-1.331-8.374c0.612-2.481,2.765-3.882,5.241-3.787c2.387,0.09,4.453,1.754,4.928,4.232
	c0.544,2.842,0.396,5.643-1.553,8.015c-0.933,1.135-0.431,1.717,0.65,2.137c0.555,0.215,1.152,0.319,1.735,0.453
	C53.99,37.298,54.595,38.191,54.006,42.517"/>
</svg>
