<?xml version="1.0" encoding="utf-8"?>
<!-- Generator: Adobe Illustrator 16.0.0, SVG Export Plug-In . SVG Version: 6.00 Build 0)  -->
<!DOCTYPE svg PUBLIC "-//W3C//DTD SVG 1.1//EN" "http://www.w3.org/Graphics/SVG/1.1/DTD/svg11.dtd">
<svg version="1.1" id="Layer_1" xmlns="http://www.w3.org/2000/svg" xmlns:xlink="http://www.w3.org/1999/xlink" x="0px" y="0px"
	 width="46.52px" height="46.518px" viewBox="0 0 46.52 46.518" enable-background="new 0 0 46.52 46.518" xml:space="preserve">
<path d="M30.983,21.763c0.596,0.659,1.121,1.24,1.698,1.879c-0.1,0.068-0.226,0.134-0.329,0.227
	c-4.261,3.818-8.528,7.632-12.771,11.473c-0.532,0.481-1.095,0.77-1.783,0.928c-2.815,0.654-5.623,1.344-8.434,2.017
	c-0.63,0.151-1.1-0.03-1.391-0.519c-0.193-0.325-0.179-0.672-0.062-1.008c1.033-2.984,2.07-5.969,3.121-8.947
	c0.072-0.206,0.218-0.41,0.382-0.557c2.819-2.535,5.648-5.06,8.475-7.588c1.617-1.447,3.231-2.896,4.844-4.347
	c0.08-0.073,0.132-0.177,0.187-0.252c0.531,0.588,1.001,1.11,1.529,1.697c-0.093,0.061-0.223,0.123-0.324,0.215
	c-4.254,3.843-8.507,7.687-12.753,11.538c-0.16,0.146-0.301,0.349-0.372,0.553c-0.568,1.59-1.115,3.188-1.676,4.781
	c-0.062,0.179-0.061,0.308,0.084,0.451c0.24,0.236,0.47,0.487,0.681,0.752c0.135,0.17,0.271,0.18,0.466,0.131
	c1.563-0.381,3.13-0.746,4.692-1.135c0.2-0.049,0.406-0.164,0.561-0.303c4.324-3.898,8.642-7.805,12.958-11.712
	C30.853,21.958,30.915,21.851,30.983,21.763"/>
<path d="M27.683,18.104c0.036,0.037,0.088,0.083,0.134,0.134c0.624,0.682,1.248,1.364,1.833,2.005
	c-4.508,4.091-8.993,8.16-13.496,12.248c-0.052-0.475-0.115-0.944-0.151-1.416c-0.014-0.193-0.086-0.274-0.271-0.321
	c-0.52-0.131-1.033-0.284-1.519-0.42C18.698,26.26,23.187,22.186,27.683,18.104"/>
<path d="M36.902,19.281c-2.442-2.693-4.885-5.388-7.371-8.131c0.575-0.476,1.113-1.043,1.759-1.429
	c1.123-0.671,2.431-0.414,3.356,0.585c1.224,1.32,2.435,2.652,3.623,4.003c1.093,1.242,0.988,2.837-0.223,3.961
	C37.669,18.621,37.274,18.953,36.902,19.281"/>
<path d="M28.134,12.244c2.572,2.842,5.116,5.651,7.683,8.487c-0.618,0.524-1.251,1.061-1.87,1.585
	c-2.568-2.836-5.118-5.654-7.683-8.486C26.883,13.305,27.511,12.773,28.134,12.244"/>
<path d="M41.053,0H5.466C2.447,0,0,2.447,0,5.466v35.587c0,3.019,2.447,5.465,5.466,5.465h35.587c3.02,0,5.467-2.446,5.467-5.465
	V5.466C46.52,2.447,44.072,0,41.053,0 M42.643,41.053c0,0.889-0.699,1.589-1.59,1.589H5.466c-0.89,0-1.589-0.7-1.589-1.589V5.466
	c0-0.89,0.699-1.589,1.589-1.589h35.569l0.014-0.014c0.89,0,1.594,0.713,1.594,1.603V41.053z"/>
</svg>
