<?xml version="1.0" encoding="utf-8"?>
<!-- Generator: Adobe Illustrator 16.0.0, SVG Export Plug-In . SVG Version: 6.00 Build 0)  -->
<!DOCTYPE svg PUBLIC "-//W3C//DTD SVG 1.1//EN" "http://www.w3.org/Graphics/SVG/1.1/DTD/svg11.dtd">
<svg version="1.1" id="Layer_1" xmlns="http://www.w3.org/2000/svg" xmlns:xlink="http://www.w3.org/1999/xlink" x="0px" y="0px"
	 width="46.623px" height="46.623px" viewBox="0 0 46.623 46.623" enable-background="new 0 0 46.623 46.623" xml:space="preserve">
<path d="M42.738,0H3.886C1.739,0,0,1.739,0,3.885v38.853c0,2.146,1.739,3.885,3.886,3.885h38.853c2.146,0,3.885-1.738,3.885-3.885
	V3.885C46.623,1.739,44.884,0,42.738,0 M35.143,30.875c0.83,0.827,0.83,2.176,0,3.006l-1.507,1.504c-0.83,0.829-2.174,0.829-3.007,0
	l-7.517-7.518l-7.517,7.518c-0.83,0.829-2.179,0.829-3.009,0l-1.504-1.504c-0.83-0.83-0.83-2.179,0-3.006l7.519-7.519l-7.519-7.518
	c-0.83-0.83-0.83-2.179,0-3.008l1.504-1.503c0.83-0.83,2.179-0.83,3.009,0l7.517,7.517l7.517-7.517c0.83-0.83,2.177-0.83,3.007,0
	l1.507,1.505c0.83,0.827,0.83,2.176,0,3.006l-7.519,7.518L35.143,30.875z"/>
</svg>
