<?xml version="1.0" encoding="utf-8"?>
<!-- Generator: Adobe Illustrator 16.0.0, SVG Export Plug-In . SVG Version: 6.00 Build 0)  -->
<!DOCTYPE svg PUBLIC "-//W3C//DTD SVG 1.1//EN" "http://www.w3.org/Graphics/SVG/1.1/DTD/svg11.dtd">
<svg version="1.1" id="Layer_1" xmlns="http://www.w3.org/2000/svg" xmlns:xlink="http://www.w3.org/1999/xlink" x="0px" y="0px"
	 width="40px" height="34.91px" viewBox="0 0 40 34.91" enable-background="new 0 0 40 34.91" xml:space="preserve">
<path fill="#999999" d="M38,0H2C0.9,0,0,0.899,0,2v24.718c0,1.1,0.9,2,2,2h6.125c0.5,0,0.906,0.406,0.906,0.906v4.375l0.019,0.008
	c0.049,0.504,0.46,0.903,0.977,0.903c0.249,0,0.469-0.101,0.645-0.251l0.011,0.004l8.744-5.699c0.112-0.068,0.517-0.246,1.664-0.246
	H38c1.101,0,2-0.9,2-2V2C40,0.899,39.101,0,38,0 M29.716,15.037c0,0.685-0.561,1.245-1.245,1.245h-6.548v6.547
	c0,0.685-0.561,1.245-1.245,1.245h-1.355c-0.685,0-1.245-0.561-1.245-1.245v-6.547h-6.548c-0.685,0-1.245-0.561-1.245-1.245v-1.356
	c0-0.685,0.561-1.245,1.245-1.245h6.548V5.889c0-0.685,0.561-1.245,1.245-1.245h1.355c0.685,0,1.245,0.561,1.245,1.245v6.547h6.548
	c0.685,0,1.245,0.561,1.245,1.245V15.037z"/>
</svg>
