<?xml version="1.0" encoding="utf-8"?>
<!-- Generator: Adobe Illustrator 18.1.0, SVG Export Plug-In . SVG Version: 6.00 Build 0)  -->
<svg version="1.1" id="Layer_1" xmlns="http://www.w3.org/2000/svg" xmlns:xlink="http://www.w3.org/1999/xlink" x="0px" y="0px"
	 viewBox="-328 113.5 33.6 26.8" enable-background="new -328 113.5 33.6 26.8" xml:space="preserve">
<path fill="#FFFFFF" d="M-295.9,123.2l-3.1,3.1l3.1,3.1c0.2,0.2,0.2,0.5,0,0.7l-1.5,1.5c-0.2,0.2-0.5,0.2-0.7,0l-3.1-3.1l-3.1,3.1
	c-0.2,0.2-0.5,0.2-0.7,0l-1.5-1.5c-0.2-0.2-0.2-0.5,0-0.7l3.1-3.1l-3.1-3.1c-0.2-0.2-0.2-0.5,0-0.7l1.5-1.5c0.2-0.2,0.5-0.2,0.7,0
	l3.1,3.1l3.1-3.1c0.2-0.2,0.5-0.2,0.7,0l1.5,1.5C-295.7,122.7-295.7,123-295.9,123.2 M-311.1,139L-311.1,139
	C-311.1,139-311.1,139-311.1,139L-311.1,139c-0.1,0-0.2,0-0.2,0c-0.3-0.1-0.6-0.2-0.8-0.5l-7.1-6.5h-7.6c-0.7,0-1.3-0.6-1.3-1.3
	v-8.9c0-0.7,0.6-1.3,1.3-1.3h7.3l7.5-6.9c0.4-0.4,1.2-0.3,1.6,0.1c0.2,0.2,0.3,0.5,0.3,0.8c0,0,0,0.1,0,0.1v22.8
	c0.1,0.3,0,0.7-0.2,1C-310.3,138.8-310.7,139-311.1,139"/>
</svg>
