<?xml version="1.0" encoding="utf-8"?>
<!-- Generator: Adobe Illustrator 15.0.0, SVG Export Plug-In . SVG Version: 6.00 Build 0)  -->
<!DOCTYPE svg PUBLIC "-//W3C//DTD SVG 1.1//EN" "http://www.w3.org/Graphics/SVG/1.1/DTD/svg11.dtd">
<svg version="1.1" id="Layer_1" xmlns="http://www.w3.org/2000/svg" xmlns:xlink="http://www.w3.org/1999/xlink" x="0px" y="0px"
	 width="33.5px" height="29.146px" viewBox="0 0 33.5 29.146" enable-background="new 0 0 33.5 29.146" xml:space="preserve">
<path d="M6.38,24.132c0,1.531-1.242,2.771-2.773,2.771H2.771C1.24,26.904,0,25.663,0,24.132V4.153c0-1.53,1.24-2.772,2.771-2.772
	h0.836c1.531,0,2.773,1.242,2.773,2.772V24.132z"/>
<path d="M32.113,29.148c-0.354,0-0.704-0.09-1.021-0.268L9.756,16.907c-0.642-0.361-1.047-1.037-1.062-1.775
	c-0.013-0.739,0.368-1.433,0.997-1.815L31.026,0.304c0.645-0.394,1.103-0.405,1.76-0.039C33.44,0.635,33.5,1.327,33.5,2.081v24.987
	c0,0.738-0.044,1.422-0.685,1.795C32.492,29.052,32.474,29.148,32.113,29.148"/>
</svg>
