<?xml version="1.0" encoding="utf-8"?>
<!-- Generator: Adobe Illustrator 16.0.0, SVG Export Plug-In . SVG Version: 6.00 Build 0)  -->
<!DOCTYPE svg PUBLIC "-//W3C//DTD SVG 1.1//EN" "http://www.w3.org/Graphics/SVG/1.1/DTD/svg11.dtd">
<svg version="1.1" id="Layer_1" xmlns="http://www.w3.org/2000/svg" xmlns:xlink="http://www.w3.org/1999/xlink" x="0px" y="0px"
	 width="42.099px" height="45.665px" viewBox="0 0 42.099 45.665" enable-background="new 0 0 42.099 45.665" xml:space="preserve">
<path d="M29.913,9.914L28.082,9.82c-1.516-0.077-3.309-0.16-5.106-0.195c-4.614-0.094-8.625,0.223-12.259,0.966
	c-3.334,0.681-5.924,1.743-7.697,3.154c-1.838,1.464-2.785,3.204-2.982,5.479c-0.129,1.482,0.08,3.061,0.638,4.824
	c0.197-0.963,0.517-1.832,0.972-2.655c1.562-2.827,4.777-4.733,9.559-5.665c2.934-0.572,6.297-0.829,10.583-0.808
	c2.118,0.01,4.011,0.068,6.138,0.191l1.754,0.103l-6.238,5.651c-0.347,0.313-0.547,0.742-0.564,1.206
	c-0.02,0.466,0.146,0.908,0.468,1.248l0.86,0.912c0.675,0.716,1.816,0.761,2.546,0.101L37.9,14.237
	c0.645-0.704,0.613-1.329,0.613-1.329c0.047-0.499-0.172-1.045-0.509-1.4L27.688,0.567c-0.675-0.716-1.817-0.76-2.547-0.1
	L24.21,1.311c-0.346,0.313-0.546,0.74-0.564,1.205s0.147,0.908,0.469,1.248L29.913,9.914z"/>
<path d="M19.222,23.592c0.018-0.465-0.148-0.907-0.469-1.247l-0.861-0.911c-0.675-0.718-1.816-0.763-2.545-0.102L4.114,31.427
	c-0.365,0.33-0.649,0.803-0.649,1.307c0,0,0.002,0.815,0.586,1.425l10.338,10.939c0.675,0.716,1.828,0.761,2.558,0.1l0.936-0.843
	c0.347-0.312,0.55-0.74,0.567-1.205c0.019-0.465-0.146-0.908-0.466-1.247l-5.798-6.151l1.83,0.094
	c1.517,0.076,3.31,0.16,5.106,0.196c4.615,0.092,8.626-0.224,12.26-0.967c3.333-0.681,5.923-1.743,7.697-3.155
	c1.837-1.463,2.785-3.204,2.983-5.478c0.128-1.468-0.076-3.029-0.622-4.771c-0.19,0.903-0.511,1.734-0.988,2.601
	c-1.562,2.827-4.777,4.732-9.558,5.665c-2.935,0.571-6.297,0.829-10.584,0.809c-2.121-0.01-4.015-0.07-6.138-0.193l-1.754-0.101
	l6.238-5.653C19.002,24.485,19.204,24.058,19.222,23.592"/>
</svg>
