<?xml version="1.0" encoding="utf-8"?>
<!-- Generator: Adobe Illustrator 18.1.1, SVG Export Plug-In . SVG Version: 6.00 Build 0)  -->
<svg version="1.1" id="Layer_1" xmlns="http://www.w3.org/2000/svg" xmlns:xlink="http://www.w3.org/1999/xlink" x="0px" y="0px"
	 viewBox="0 0 12 16.8" enable-background="new 0 0 12 16.8" xml:space="preserve">
<path d="M5.9,11.3c1.2,0,2.2-1,2.2-2.1h0V3.5c0-1.2-1-2.2-2.2-2.2s-2.2,1-2.2,2.2v5.6h0C3.7,10.2,4.7,11.3,5.9,11.3"/>
<path d="M9.8,7.5c-0.3,0-0.6,0.3-0.6,0.6v1c0,1.9-1.5,3.4-3.4,3.4c-1.9,0-3.4-1.5-3.4-3.4v-1c0-0.3-0.3-0.6-0.6-0.6
	c-0.3,0-0.6,0.3-0.6,0.6v1c0,2.4,1.8,4.4,4.2,4.6v1.2h-2c-0.3,0-0.6,0.3-0.6,0.6s0.3,0.6,0.6,0.6h5c0.3,0,0.6-0.3,0.6-0.6
	s-0.3-0.6-0.6-0.6h-2v-1.2c2.3-0.3,4-2.2,4-4.6v-1C10.4,7.7,10.2,7.5,9.8,7.5"/>
<line fill="none" stroke="#E4292A" stroke-width="2" stroke-linecap="round" stroke-miterlimit="10" x1="1" y1="15.8" x2="11" y2="1"/>
</svg>
